# This file uses centimeters as units for non-parametric coordinates.

mtllib OBJ_Key_2.mtl
g default
v 0.592812 0.245523 0.827046
v 0.677871 0.245523 0.827046
v 0.592812 0.572772 0.820557
v 0.677871 0.572772 0.820557
v 0.592812 0.572772 0.685372
v 0.677871 0.572772 0.685372
v 0.592812 0.119999 0.752964
v 0.677871 0.119999 0.752964
v 0.592812 0.373170 0.628635
v 0.677871 0.373170 0.628635
v 0.677871 0.373170 0.760636
v 0.592812 0.373170 0.760636
v 0.592812 0.463026 0.685372
v 0.677871 0.463026 0.685372
v 0.677871 0.463026 0.820557
v 0.592812 0.463026 0.820557
v 0.677871 0.256110 0.691688
v 0.592812 0.256110 0.691688
v 0.592812 0.195490 0.638247
v 0.592812 0.119131 0.752925
v 0.677871 0.195490 0.638247
v 0.677871 0.119131 0.752925
v 0.592812 0.702100 0.950493
v 0.677871 0.702100 0.950493
v 0.592812 0.901189 0.751404
v 0.677871 0.901189 0.751404
v 0.592812 0.702100 0.552315
v 0.677871 0.702100 0.552315
v 0.677871 0.702100 0.669943
v 0.677871 0.783561 0.751404
v 0.677871 0.702100 0.832865
v 0.592812 0.702100 0.669943
v 0.592812 0.702100 0.832865
v 0.592812 0.783561 0.751404
v 0.592812 0.620639 0.751404
v 0.677871 0.620639 0.751404
v 0.677871 0.620639 0.751404
v 0.592812 0.620639 0.751404
v 0.592812 0.572772 0.820557
v 0.677871 0.572772 0.820557
v 0.677871 0.620639 0.751404
v 0.592812 0.620639 0.751404
v 0.592812 0.572772 0.685372
v 0.677871 0.572772 0.685372
v 0.677871 0.620639 0.751404
v 0.592812 0.620639 0.751404
vt 0.447385 0.746973
vt 0.566578 0.746973
vt 0.566578 0.866165
vt 0.447385 0.866165
vt 0.552190 0.522497
vt 0.590629 0.593861
vt 0.510157 0.593861
vt 0.469671 0.516043
vt 0.514834 0.439519
vt 0.556040 0.648640
vt 0.473627 0.648640
vt 0.514858 0.438990
vt 0.584769 0.485541
vt 0.556040 0.715546
vt 0.473627 0.715546
vt 0.515785 0.744727
vt 0.515785 0.744727
vt 0.715606 0.516043
vt 0.675120 0.593861
vt 0.594648 0.593861
vt 0.633087 0.522497
vt 0.670443 0.439519
vt 0.711650 0.648640
vt 0.629236 0.648640
vt 0.600507 0.485541
vt 0.670419 0.438990
vt 0.711650 0.715546
vt 0.629236 0.715546
vt 0.669492 0.744727
vt 0.669492 0.744727
vt 0.852538 0.683979
vt 0.973910 0.805350
vt 0.902200 0.805350
vt 0.852538 0.755689
vt 0.852538 0.926722
vt 0.852538 0.855012
vt 0.802877 0.805350
vt 0.773695 0.765095
vt 0.773695 0.847508
vt 0.802877 0.805350
vt 0.691401 0.989716
vt 0.570029 0.868344
vt 0.641739 0.868344
vt 0.691401 0.918006
vt 0.691401 0.746973
vt 0.691401 0.818683
vt 0.741062 0.868344
vt 0.770244 0.910502
vt 0.770244 0.828089
vt 0.741062 0.868344
vt 0.465506 0.516043
vt 0.465506 0.593861
vt 0.413651 0.593861
vt 0.413651 0.516043
vt 0.465506 0.648640
vt 0.413651 0.648640
vt 0.413651 0.439519
vt 0.465506 0.439519
vt 0.465506 0.715546
vt 0.413651 0.715546
vt 0.413651 0.438990
vt 0.465506 0.438990
vt 0.465506 0.744727
vt 0.413651 0.744727
vt 0.413651 0.485541
vt 0.465506 0.485541
vt 0.413651 0.522497
vt 0.465506 0.522497
vt 0.413651 0.593861
vt 0.465506 0.593861
vt 0.413651 0.648640
vt 0.465506 0.648640
vt 0.413651 0.715546
vt 0.465506 0.715546
vt 0.413651 0.744727
vt 0.465506 0.744727
vt 0.719624 0.438990
vt 0.771479 0.438990
vt 0.771479 0.560362
vt 0.719624 0.560362
vt 0.719624 0.518204
vt 0.771479 0.518204
vt 0.771479 0.681734
vt 0.719624 0.681734
vt 0.771479 0.600617
vt 0.719624 0.600617
vt 0.465506 0.967734
vt 0.465506 0.918072
vt 0.413651 0.918072
vt 0.413651 0.967734
vt 0.465506 0.868411
vt 0.413651 0.868411
vt 0.413651 0.918072
vt 0.465506 0.918072
vt 0.465506 0.918072
vt 0.413651 0.918072
vn 0.000000 0.461536 0.887121
vn 0.000000 0.029820 0.999555
vn 0.000000 0.029820 0.999555
vn 0.000000 0.461536 0.887121
vn 0.000000 0.000000 0.000000
vn 0.000000 0.000000 0.000000
vn 0.000000 0.000000 0.000000
vn 0.000000 0.000000 0.000000
vn 0.000000 -0.474222 -0.880405
vn 0.000000 -0.474222 -0.880405
vn 0.000000 -0.030513 -0.999534
vn 0.000000 -0.030513 -0.999534
vn 0.000000 -0.508260 0.861204
vn 0.000000 -0.508260 0.861204
vn 0.000000 -0.508260 0.861204
vn 0.000000 -0.508260 0.861204
vn 1.000000 0.000000 0.000000
vn 1.000000 0.000000 0.000000
vn 1.000000 0.000000 0.000000
vn 1.000000 0.000000 0.000000
vn 1.000000 0.000000 0.000000
vn -1.000000 0.000000 0.000000
vn -1.000000 0.000000 0.000000
vn -1.000000 0.000000 0.000000
vn -1.000000 0.000000 0.000000
vn -1.000000 0.000000 0.000000
vn 0.000000 0.273418 -0.961895
vn 0.000000 0.273418 -0.961895
vn 1.000000 0.000000 0.000000
vn 1.000000 0.000000 0.000000
vn 0.000000 -0.287525 0.957773
vn 0.000000 -0.287525 0.957773
vn -1.000000 0.000000 0.000000
vn -1.000000 0.000000 0.000000
vn 0.000000 0.386409 -0.922328
vn 0.000000 0.386409 -0.922328
vn 1.000000 0.000000 0.000000
vn 1.000000 0.000000 0.000000
vn 0.000000 0.401778 0.915737
vn 0.000000 0.401778 0.915737
vn -1.000000 0.000000 0.000000
vn -1.000000 0.000000 0.000000
vn 0.000000 -0.832360 -0.554236
vn 0.000000 -0.832360 -0.554236
vn 0.000000 -0.832360 -0.554236
vn 0.000000 -0.832360 -0.554236
vn -1.000000 0.000000 0.000000
vn -1.000000 0.000000 0.000000
vn 0.000000 0.661298 -0.750124
vn 0.000000 0.661298 -0.750124
vn 0.000000 0.661298 -0.750124
vn 0.000000 0.661298 -0.750124
vn 1.000000 0.000000 0.000000
vn 1.000000 0.000000 0.000000
vn 0.000000 -0.045894 0.998946
vn 0.000000 -0.045894 0.998946
vn 0.000000 -0.045894 0.998946
vn 0.000000 -0.045894 0.998946
vn 0.000000 0.707107 0.707106
vn 0.000000 0.707107 0.707106
vn 0.000000 0.707107 0.707106
vn 0.000000 0.707107 0.707106
vn 0.000000 0.707107 -0.707107
vn 0.000000 0.707107 -0.707107
vn 0.000000 0.707107 -0.707107
vn 0.000000 0.707107 -0.707107
vn 1.000000 -0.000000 0.000000
vn 1.000000 -0.000000 0.000000
vn 1.000000 -0.000000 0.000000
vn 1.000000 -0.000000 0.000000
vn 1.000000 0.000000 0.000000
vn 1.000000 0.000000 0.000000
vn 1.000000 0.000000 0.000000
vn 1.000000 0.000000 0.000000
vn -1.000000 0.000000 0.000000
vn -1.000000 0.000000 0.000000
vn -1.000000 0.000000 0.000000
vn -1.000000 0.000000 0.000000
vn -1.000000 0.000000 0.000000
vn -1.000000 0.000000 0.000000
vn -1.000000 0.000000 0.000000
vn -1.000000 0.000000 0.000000
vn 0.000000 -0.707107 0.707107
vn 0.000000 -0.707107 0.707107
vn 0.000000 -0.707107 0.707107
vn 0.000000 -0.707107 0.707107
vn 0.000000 -0.707108 -0.707106
vn 0.000000 -0.707108 -0.707106
vn 0.000000 -0.707108 -0.707106
vn 0.000000 -0.707108 -0.707106
vn 0.000000 0.822234 0.569150
vn 0.000000 0.822234 0.569150
vn 0.000000 -0.000000 0.000000
vn 0.000000 -0.000000 0.000000
vn 0.000000 0.809645 -0.586921
vn 0.000000 0.809645 -0.586921
vn -0.000000 -0.000000 0.000000
vn -0.000000 -0.000000 0.000000
vn 0.000000 -0.708763 0.705447
vn 0.000000 -0.708763 0.705447
vn 0.000000 -0.708763 0.705447
vn 0.000000 -0.708763 0.705447
vn 1.000000 -0.000000 0.000000
vn 1.000000 -0.000000 0.000000
vn 1.000000 -0.000000 0.000000
vn 1.000000 -0.000000 0.000000
vn -1.000000 0.000000 0.000000
vn -1.000000 0.000000 0.000000
vn -1.000000 0.000000 0.000000
vn -1.000000 0.000000 0.000000
vn 0.000000 0.707107 -0.707107
vn 0.000000 0.707107 -0.707107
vn 0.000000 0.707107 -0.707107
vn 0.000000 0.707107 -0.707107
vn 0.000000 -0.717082 -0.696989
vn 0.000000 -0.717082 -0.696989
vn 0.000000 -0.717082 -0.696989
vn 0.000000 -0.717082 -0.696989
vn 1.000000 0.000001 0.000000
vn 1.000000 0.000001 0.000000
vn 1.000000 0.000001 0.000000
vn 1.000000 0.000001 0.000000
vn -1.000000 0.000000 0.000000
vn -1.000000 0.000000 0.000000
vn -1.000000 0.000000 0.000000
vn -1.000000 0.000000 0.000000
vn 0.000000 0.707106 0.707107
vn 0.000000 0.707106 0.707107
vn 0.000000 0.707106 0.707107
vn 0.000000 0.707106 0.707107
s 1
g Key_2
usemtl initialShadingGroup
f 2/51/1 11/52/2 12/53/3 1/54/4
s off
f 35/1/5 36/2/6 37/3/7 38/4/8
s 2
f 17/68/9 18/67/10 9/69/11 10/70/12
s off
f 7/57/13 8/58/14 2/51/15 1/54/16
s 3
f 17/5/17 10/6/18 11/7/19 2/8/20 8/9/21
s 4
f 1/18/22 12/19/23 9/20/24 18/21/25 7/22/26
s 2
f 13/71/27 14/72/28 10/70/12 9/69/11
s 3
f 11/7/19 10/6/18 14/10/29 15/11/30
s 1
f 12/53/3 11/52/2 15/55/31 16/56/32
s 4
f 9/20/24 12/19/23 16/23/33 13/24/34
s 2
f 5/73/35 6/74/36 14/72/28 13/71/27
s 3
f 15/11/30 14/10/29 6/14/37 4/15/38
s 1
f 16/56/32 15/55/31 4/59/39 3/60/40
s 4
f 13/24/34 16/23/33 3/27/41 5/28/42
s off
f 20/61/43 19/65/44 21/66/45 22/62/46
s 4
f 7/22/26 18/21/25 19/25/47 20/26/48
s off
f 18/67/49 17/68/50 21/66/51 19/65/52
s 3
f 17/5/17 8/9/21 22/12/53 21/13/54
s off
f 8/58/55 7/57/56 20/61/57 22/62/58
f 23/77/59 24/78/60 26/79/61 25/80/62
f 25/80/63 26/79/64 28/83/65 27/84/66
f 28/31/67 26/32/68 30/33/69 29/34/70
f 26/32/71 24/35/72 31/36/73 30/33/74
f 23/41/75 25/42/76 34/43/77 33/44/78
f 25/42/79 27/45/80 32/46/81 34/43/82
f 29/87/83 30/88/84 34/89/85 32/90/86
f 30/88/87 31/91/88 33/92/89 34/89/90
s 1
f 3/60/40 4/59/39 36/63/91 35/64/92
s 3
f 4/15/38 6/14/37 37/16/93 36/17/94
s 2
f 6/74/36 5/73/35 38/75/95 37/76/96
s 4
f 5/28/42 3/27/41 35/29/97 38/30/98
s off
f 24/78/99 23/77/100 39/81/101 40/82/102
f 31/36/103 24/35/104 40/39/105 41/40/106
f 23/41/107 33/44/108 42/47/109 39/48/110
f 33/92/111 31/91/112 41/95/113 42/96/114
f 27/84/115 28/83/116 44/85/117 43/86/118
f 28/31/119 29/34/120 45/37/121 44/38/122
f 32/46/123 27/45/124 43/49/125 46/50/126
f 29/87/127 32/90/128 46/93/129 45/94/130
