# This file uses centimeters as units for non-parametric coordinates.

mtllib OBJ_Dice.mtl
g default
v -0.933334 -2.778024 0.933334
v -0.788026 -2.844690 0.904991
v -0.788026 -2.749681 1.000000
v 0.933333 -2.778024 0.933334
v 0.788026 -2.749681 1.000000
v 0.788026 -2.844690 0.904991
v -0.933334 -0.911357 0.933334
v -0.788026 -0.939699 1.000000
v -0.788026 -0.844690 0.904991
v 0.933333 -0.911357 0.933333
v 0.788026 -0.844690 0.904991
v 0.788026 -0.939699 1.000000
v -0.933334 -0.911357 -0.933333
v -0.788026 -0.844690 -0.904991
v -0.788026 -0.939699 -1.000000
v 0.933333 -0.911357 -0.933333
v 0.788026 -0.939699 -1.000000
v 0.788026 -0.844690 -0.904991
v -0.933334 -2.778024 -0.933333
v -0.788026 -2.749681 -1.000000
v -0.788026 -2.844690 -0.904991
v 0.933333 -2.778024 -0.933333
v 0.788026 -2.844690 -0.904991
v 0.788026 -2.749681 -1.000000
v -0.904991 -2.632716 1.000000
v -1.000000 -2.632716 0.904991
v -1.000000 -1.056665 0.904991
v -0.906902 -1.056424 1.000000
v 1.000000 -2.632716 0.904991
v 0.904991 -2.632716 1.000000
v 0.904991 -1.056665 1.000000
v 1.000000 -1.056424 0.906902
v -0.904991 -0.844690 0.788026
v -1.000000 -0.939699 0.788026
v -1.000000 -0.939699 -0.788026
v -0.906902 -0.844690 -0.788267
v 1.000000 -0.939699 0.788026
v 0.904991 -0.844690 0.788026
v 0.904991 -0.844690 -0.788026
v 1.000000 -0.937788 -0.788266
v -0.904991 -1.056665 -1.000000
v -1.000000 -1.056665 -0.904991
v -1.000000 -2.632716 -0.904991
v -0.906902 -2.632957 -1.000000
v 1.000000 -1.056665 -0.904991
v 0.904991 -1.056665 -1.000000
v 0.904991 -2.632716 -1.000000
v 1.000000 -2.632957 -0.906902
v -0.904991 -2.844690 -0.788026
v -1.000000 -2.749681 -0.788026
v -1.000000 -2.749681 0.788026
v -0.906902 -2.844690 0.788267
v 1.000000 -2.749681 -0.788026
v 0.904991 -2.844690 -0.788026
v 0.904991 -2.844690 0.788026
v 1.000000 -2.751593 0.788267
vt 0.303146 0.018000
vt 0.327628 0.013225
vt 0.323175 0.037666
vt 0.303146 0.001992
vt 0.338861 0.037707
vt 0.322853 0.303252
vt 0.303146 0.322960
vt 0.037600 0.322960
vt 0.017893 0.303252
vt 0.017893 0.037707
vt 0.037600 0.018000
vt 0.037600 0.001992
vt 0.338861 0.303252
vt 0.327628 0.327735
vt 0.303146 0.338968
vt 0.037600 0.338967
vt 0.013118 0.327735
vt 0.001885 0.303252
vt 0.001885 0.037666
vt 0.013118 0.013225
vt 0.356353 0.013225
vt 0.380836 0.018000
vt 0.361129 0.037707
vt 0.380836 0.001992
vt 0.646381 0.018000
vt 0.666088 0.037707
vt 0.666088 0.303252
vt 0.646381 0.322960
vt 0.380836 0.322960
vt 0.360807 0.303293
vt 0.345121 0.037707
vt 0.646381 0.001992
vt 0.670864 0.013225
vt 0.682096 0.037707
vt 0.682096 0.303293
vt 0.670864 0.327735
vt 0.380836 0.338968
vt 0.646381 0.338967
vt 0.356353 0.327735
vt 0.345121 0.303252
vt 0.944449 0.668488
vt 0.919967 0.663712
vt 0.939674 0.644005
vt 0.919967 0.679720
vt 0.919967 0.358753
vt 0.939674 0.378460
vt 0.654422 0.663712
vt 0.634714 0.644005
vt 0.634714 0.378460
vt 0.654422 0.358753
vt 0.654381 0.679720
vt 0.944449 0.353977
vt 0.629939 0.668488
vt 0.629939 0.353977
vt 0.654422 0.342745
vt 0.920008 0.342745
vt 0.334105 0.663712
vt 0.309623 0.668488
vt 0.314076 0.644046
vt 0.334105 0.679720
vt 0.314398 0.378460
vt 0.334065 0.358431
vt 0.599651 0.358753
vt 0.619680 0.378419
vt 0.619358 0.644005
vt 0.599691 0.664034
vt 0.599651 0.679720
vt 0.309623 0.353977
vt 0.599651 0.342745
vt 0.334105 0.342745
vt 0.624133 0.353977
vt 0.624133 0.668488
vt 0.001885 0.998008
vt 0.006660 0.973525
vt 0.026368 0.993233
vt 0.006660 0.707980
vt 0.026368 0.688273
vt 0.291913 0.688273
vt 0.311620 0.707980
vt 0.311620 0.973525
vt 0.291954 0.993555
vt 0.001885 0.683498
vt 0.316396 0.683498
vt 0.316396 0.998008
vt 0.322988 0.998008
vt 0.327764 0.973526
vt 0.347471 0.993233
vt 0.327764 0.707980
vt 0.347471 0.688273
vt 0.613016 0.688273
vt 0.632723 0.707980
vt 0.632723 0.973526
vt 0.613057 0.993555
vt 0.322988 0.683498
vt 0.637499 0.683498
vt 0.637499 0.998008
vn -0.576726 -0.576077 0.579243
vn -0.000774 -0.031222 0.999512
vn -0.031202 -0.000791 0.999513
vn -0.000766 -0.999516 0.031110
vn -0.031353 -0.999508 0.000772
vn 0.000774 -0.999512 0.031222
vn 0.000774 -0.031222 0.999512
vn 0.576076 -0.576727 0.579243
vn 0.030937 -0.999521 0.000759
vn 0.030926 -0.000792 0.999521
vn -0.576726 0.579244 0.576076
vn -0.000774 0.999512 0.031222
vn -0.031202 0.999513 0.000791
vn -0.000766 0.031110 0.999516
vn -0.031353 0.000772 0.999508
vn 0.000774 0.031222 0.999512
vn 0.000774 0.999512 0.031222
vn 0.576076 0.579244 0.576726
vn 0.030937 0.000759 0.999521
vn 0.030926 0.999521 0.000792
vn -0.576726 0.576076 -0.579243
vn -0.000774 0.031222 -0.999512
vn -0.031202 0.000791 -0.999513
vn -0.000766 0.999516 -0.031110
vn -0.031353 0.999508 -0.000772
vn 0.000774 0.999512 -0.031222
vn 0.000774 0.031222 -0.999512
vn 0.576076 0.576726 -0.579244
vn 0.030937 0.999521 -0.000759
vn 0.030926 0.000792 -0.999521
vn -0.576726 -0.579244 -0.576076
vn -0.000774 -0.999512 -0.031222
vn -0.031202 -0.999513 -0.000791
vn -0.000766 -0.031110 -0.999516
vn -0.031353 -0.000772 -0.999508
vn 0.000774 -0.031222 -0.999512
vn 0.000774 -0.999512 -0.031222
vn 0.576076 -0.579244 -0.576726
vn 0.030937 -0.000759 -0.999521
vn 0.030926 -0.999521 -0.000792
vn -0.999521 -0.000792 0.030941
vn -0.999521 -0.030952 0.000760
vn -0.999521 0.000760 0.030952
vn -0.999521 0.030941 0.000792
vn 0.999518 -0.000782 0.031045
vn 0.999510 -0.031308 0.000771
vn 0.999510 0.000771 0.031308
vn 0.999518 0.031045 0.000782
vn -0.999521 0.030952 -0.000760
vn -0.999521 0.000792 -0.030941
vn 0.999510 0.031308 -0.000771
vn 0.999518 0.000782 -0.031045
vn -0.999521 -0.000760 -0.030952
vn -0.999521 -0.030941 -0.000792
vn 0.999510 -0.000771 -0.031308
vn 0.999518 -0.031045 -0.000782
s 1
g B_Dice
usemtl lambert2SG
f 1/73/1 3/74/2 25/75/3
f 2/1/4 1/2/1 52/3/5
f 3/4/2 2/1/4 6/11/6 5/12/7
f 4/20/8 6/11/6 55/10/9
f 5/76/7 4/82/8 30/77/10
f 7/21/11 9/22/12 33/23/13
f 8/80/14 7/84/11 28/81/15
f 9/22/12 8/24/14 12/32/16 11/25/17
f 10/83/18 12/79/16 31/78/19
f 11/25/17 10/33/18 38/26/20
f 13/85/21 15/86/22 41/87/23
f 14/29/24 13/39/21 36/30/25
f 15/37/22 14/29/24 18/28/26 17/38/27
f 16/36/28 18/28/26 39/27/29
f 17/88/27 16/94/28 46/89/30
f 19/14/31 21/7/32 49/6/33
f 20/92/34 19/96/31 44/93/35
f 21/7/32 20/15/34 24/16/36 23/8/37
f 22/95/38 24/91/36 47/90/39
f 23/8/37 22/17/38 54/9/40
f 1/41/1 26/42/41 51/43/42
f 26/42/41 25/44/3 28/51/15 27/47/43
f 27/47/43 7/53/11 34/48/44
f 29/57/45 4/58/8 56/59/46
f 30/60/10 29/57/45 32/66/47 31/67/19
f 10/72/18 32/66/47 37/65/48
f 34/31/44 33/23/13 36/30/25 35/40/49
f 35/49/49 13/54/21 42/50/50
f 38/26/20 37/34/48 40/35/51 39/27/29
f 16/71/28 40/64/51 45/63/52
f 42/50/50 41/55/23 44/56/35 43/45/53
f 43/45/53 19/52/31 50/46/54
f 46/69/30 45/63/52 48/62/55 47/70/39
f 22/68/38 48/62/55 53/61/56
f 50/13/54 49/6/33 52/3/5 51/5/42
f 54/9/40 53/18/56 56/19/46 55/10/9
f 25/75/3 3/74/2 5/76/7 30/77/10 31/78/19 12/79/16 8/80/14 28/81/15
f 33/23/13 9/22/12 11/25/17 38/26/20 39/27/29 18/28/26 14/29/24 36/30/25
f 43/45/53 50/46/54 51/43/42 26/42/41 27/47/43 34/48/44 35/49/49 42/50/50
f 29/57/45 56/59/46 53/61/56 48/62/55 45/63/52 40/64/51 37/65/48 32/66/47
f 49/6/33 21/7/32 23/8/37 54/9/40 55/10/9 6/11/6 2/1/4 52/3/5
f 41/87/23 15/86/22 17/88/27 46/89/30 47/90/39 24/91/36 20/92/34 44/93/35
f 1/2/1 2/1/4 3/4/2
f 4/20/8 5/12/7 6/11/6
f 7/21/11 8/24/14 9/22/12
f 10/33/18 11/25/17 12/32/16
f 13/39/21 14/29/24 15/37/22
f 16/36/28 17/38/27 18/28/26
f 19/14/31 20/15/34 21/7/32
f 22/17/38 23/8/37 24/16/36
f 1/41/1 25/44/3 26/42/41
f 27/47/43 28/51/15 7/53/11
f 4/58/8 29/57/45 30/60/10
f 31/67/19 32/66/47 10/72/18
f 7/21/11 33/23/13 34/31/44
f 35/40/49 36/30/25 13/39/21
f 10/33/18 37/34/48 38/26/20
f 39/27/29 40/35/51 16/36/28
f 13/54/21 41/55/23 42/50/50
f 43/45/53 44/56/35 19/52/31
f 16/71/28 45/63/52 46/69/30
f 47/70/39 48/62/55 22/68/38
f 19/14/31 49/6/33 50/13/54
f 51/5/42 52/3/5 1/2/1
f 22/17/38 53/18/56 54/9/40
f 55/10/9 56/19/46 4/20/8
