# This file uses centimeters as units for non-parametric coordinates.

mtllib gravel.mtl
g default
v 0.764349 0.000000 -0.562032
v 0.294844 0.000000 -0.919229
v -0.261297 0.000000 -0.805346
v -0.783351 0.000000 -0.573294
v -0.905028 0.000000 -0.004938
v -0.816285 0.000000 0.584545
v -0.308779 0.000000 0.937165
v 0.271707 0.000000 0.839936
v 0.905028 0.000000 0.658156
v 0.887229 0.000000 -0.005273
v 0.583369 0.333333 -0.433615
v 0.246253 0.333333 -0.773026
v -0.205327 0.333333 -0.647292
v -0.631764 0.333333 -0.466057
v -0.663827 0.333333 -0.007139
v -0.633331 0.333333 0.448588
v -0.232172 0.333333 0.699626
v 0.214993 0.333333 0.659435
v 0.689445 0.333333 0.495683
v 0.697373 0.333333 -0.008849
v 0.394324 0.680630 -0.289949
v 0.181306 0.660977 -0.449578
v -0.139656 0.682026 -0.470548
v -0.423334 0.678456 -0.307896
v -0.409778 0.677822 0.006794
v -0.378013 0.675704 0.270764
v -0.166398 0.675764 0.482618
v 0.154831 0.677139 0.473609
v 0.395125 0.678157 0.269199
v 0.443424 0.678956 -0.003994
v 0.179681 0.888251 -0.126857
v 0.084472 0.888746 -0.229287
v -0.054543 0.888787 -0.220514
v -0.196881 0.867186 -0.145795
v -0.210671 0.853944 0.010143
v -0.156138 0.842610 0.115718
v -0.079729 0.828160 0.217176
v 0.079181 0.832680 0.230362
v 0.189656 0.852998 0.117206
v 0.235029 0.867725 -0.005808
v 0.101554 0.977847 -0.061445
v 0.055299 0.984527 -0.108792
v -0.014292 0.971388 -0.109718
v -0.088012 0.951007 -0.071832
v -0.101250 0.921937 0.007538
v -0.076768 0.895992 0.066969
v -0.028078 0.885109 0.101400
v 0.044777 0.888738 0.103271
v 0.105646 0.909675 0.058249
v 0.130511 0.950543 -0.005107
v 0.061023 1.004268 -0.035149
v 0.038718 1.003541 -0.052471
v 0.008301 0.994508 -0.050664
v -0.021267 0.980671 -0.027726
v -0.031301 0.966284 0.009207
v -0.021853 0.955763 0.039205
v 0.001105 0.953061 0.056555
v 0.032794 0.956164 0.053562
v 0.059896 0.971741 0.030477
v 0.071332 0.991722 -0.004260
v 0.023825 1.030572 0.005697
v -0.645837 0.332581 0.115687
v -0.610752 0.374255 0.084617
v -0.614537 0.381968 -0.004124
v -0.656421 0.338189 -0.012074
v -0.675937 0.308823 0.051869
v -0.663775 0.361632 0.097777
v -0.646051 0.383952 0.072518
v -0.649785 0.388218 0.010193
v -0.674276 0.361662 0.012759
v -0.683095 0.346387 0.056785
v -0.671795 0.370333 0.049055
v -0.600364 0.128302 0.627291
v -0.630025 0.147702 0.575553
v -0.695496 0.100029 0.538274
v -0.693673 0.054577 0.579077
v -0.642381 0.066880 0.629573
v -0.637632 0.137741 0.630206
v -0.659748 0.142808 0.599618
v -0.705530 0.108261 0.574579
v -0.699084 0.085254 0.601796
v -0.664624 0.098303 0.631655
v -0.678905 0.114193 0.614208
v -0.287434 0.598051 0.407604
v -0.235425 0.632982 0.404800
v -0.223804 0.694951 0.341762
v -0.277464 0.685401 0.314132
v -0.315125 0.632664 0.347783
v -0.290600 0.635877 0.414361
v -0.262536 0.660350 0.406366
v -0.255790 0.703481 0.361525
v -0.288518 0.692747 0.350330
v -0.308366 0.658115 0.375944
v -0.288006 0.675188 0.383348
v 0.239777 0.339958 0.635569
v 0.190266 0.315299 0.665125
v 0.195355 0.237540 0.708445
v 0.254339 0.227647 0.695907
v 0.282007 0.282109 0.655903
v 0.241086 0.337264 0.674008
v 0.216048 0.316455 0.693768
v 0.221138 0.261768 0.723767
v 0.255647 0.262283 0.712792
v 0.268190 0.300106 0.687074
v 0.246607 0.297506 0.704053
v 0.543083 0.537385 -0.019755
v 0.509355 0.577099 0.015147
v 0.492041 0.561018 0.101115
v 0.522058 0.507838 0.103336
v 0.551435 0.491723 0.038456
v 0.560843 0.555724 0.009136
v 0.541629 0.574562 0.036087
v 0.530286 0.561929 0.096321
v 0.549479 0.531756 0.090590
v 0.566196 0.526414 0.046529
v 0.557788 0.549637 0.058810
v 0.762267 0.209882 0.416046
v 0.780334 0.178590 0.467304
v 0.824834 0.101513 0.462035
v 0.825984 0.099522 0.400971
v 0.792400 0.157691 0.372326
v 0.800056 0.206813 0.423049
v 0.814007 0.182650 0.448970
v 0.845187 0.128644 0.443701
v 0.842220 0.133783 0.407974
v 0.819412 0.173287 0.394988
v 0.831158 0.167664 0.419305
vt 0.844296 0.813379
vt 0.609529 0.987530
vt 0.585232 0.916249
vt 0.753801 0.750769
vt 0.331440 0.932006
vt 0.359427 0.854947
vt 0.070396 0.818870
vt 0.146195 0.766586
vt 0.009554 0.541767
vt 0.130162 0.542840
vt 0.053928 0.254364
vt 0.145411 0.320650
vt 0.307698 0.082444
vt 0.346004 0.198257
vt 0.597959 0.129848
vt 0.569601 0.217852
vt 0.914640 0.218475
vt 0.806842 0.297689
vt 0.905740 0.541931
vt 0.810806 0.543674
vt 0.543834 0.738343
vt 0.640833 0.667469
vt 0.397681 0.747654
vt 0.268506 0.675438
vt 0.274679 0.535718
vt 0.289143 0.418518
vt 0.385504 0.324457
vt 0.531778 0.328456
vt 0.641198 0.419213
vt 0.663191 0.540508
vt 0.493644 0.621743
vt 0.529200 0.584445
vt 0.441728 0.618549
vt 0.388571 0.591341
vt 0.383421 0.534559
vt 0.403787 0.496116
vt 0.432322 0.459172
vt 0.491668 0.454370
vt 0.532925 0.495574
vt 0.549870 0.540368
vt 0.482749 0.577867
vt 0.500023 0.560627
vt 0.456760 0.578205
vt 0.429229 0.564409
vt 0.424285 0.535508
vt 0.433428 0.513867
vt 0.451611 0.501330
vt 0.478819 0.500648
vt 0.501551 0.517042
vt 0.510837 0.540112
vt 0.476557 0.557359
vt 0.484886 0.551052
vt 0.465197 0.556701
vt 0.454155 0.548349
vt 0.450408 0.534900
vt 0.453936 0.523977
vt 0.462510 0.517659
vt 0.474344 0.518749
vt 0.484465 0.527155
vt 0.488736 0.539804
vt 0.470995 0.536178
vt 0.995492 0.125425
vt 0.892288 0.207028
vt 0.874082 0.163071
vt 0.946494 0.127223
vt 0.708172 0.146463
vt 0.745918 0.117498
vt 0.735884 0.023730
vt 0.777418 0.049786
vt 0.892217 0.004564
vt 0.880141 0.049632
vt 0.844623 0.091946
vt 0.995492 0.125425
vt 0.892288 0.207028
vt 0.874082 0.163071
vt 0.946494 0.127223
vt 0.708172 0.146463
vt 0.745918 0.117498
vt 0.735884 0.023730
vt 0.777418 0.049786
vt 0.892217 0.004564
vt 0.880141 0.049632
vt 0.844623 0.091946
vt 0.995492 0.125425
vt 0.892288 0.207028
vt 0.874082 0.163071
vt 0.946494 0.127223
vt 0.708172 0.146463
vt 0.745918 0.117498
vt 0.735884 0.023730
vt 0.777418 0.049786
vt 0.892217 0.004564
vt 0.880141 0.049632
vt 0.844623 0.091946
vt 0.995492 0.125425
vt 0.892288 0.207028
vt 0.874082 0.163071
vt 0.946494 0.127223
vt 0.708172 0.146463
vt 0.745918 0.117498
vt 0.735884 0.023730
vt 0.777418 0.049786
vt 0.892217 0.004564
vt 0.880141 0.049632
vt 0.844623 0.091946
vt 0.995492 0.125425
vt 0.892288 0.207028
vt 0.874082 0.163071
vt 0.946494 0.127223
vt 0.708172 0.146463
vt 0.745918 0.117498
vt 0.735884 0.023730
vt 0.777418 0.049786
vt 0.892217 0.004564
vt 0.880141 0.049632
vt 0.844623 0.091946
vt 0.995492 0.125425
vt 0.892288 0.207028
vt 0.874082 0.163071
vt 0.946494 0.127223
vt 0.708172 0.146463
vt 0.745918 0.117498
vt 0.735884 0.023730
vt 0.777418 0.049786
vt 0.892217 0.004564
vt 0.880141 0.049632
vt 0.844623 0.091946
vn 0.729390 0.506717 -0.459596
vn 0.225226 0.484786 -0.845137
vn 0.209534 0.540730 -0.814682
vn 0.714123 0.546869 -0.436992
vn -0.287212 0.425284 -0.858279
vn -0.264520 0.487811 -0.831907
vn -0.678879 0.531494 -0.506594
vn -0.671489 0.555995 -0.489869
vn -0.843395 0.537153 -0.012286
vn -0.830834 0.556518 0.001761
vn -0.676201 0.593919 0.435904
vn -0.680740 0.607725 0.408979
vn -0.203682 0.571402 0.794993
vn -0.205625 0.573721 0.792819
vn 0.189549 0.525192 0.829605
vn 0.202959 0.544663 0.813726
vn 0.642631 0.604517 0.470728
vn 0.635491 0.626892 0.450730
vn 0.852219 0.514785 -0.093371
vn 0.829919 0.551931 -0.081287
vn 0.237526 0.666729 -0.706437
vn 0.656329 0.645823 -0.390057
vn -0.213381 0.629378 -0.747229
vn -0.643068 0.654569 -0.397496
vn -0.767568 0.639569 0.042324
vn -0.637692 0.684515 0.353253
vn -0.230076 0.656527 0.718357
vn 0.212317 0.649947 0.729720
vn 0.594482 0.706811 0.383418
vn 0.762766 0.645554 -0.038060
vn 0.215878 0.761489 -0.611171
vn 0.546443 0.767960 -0.334122
vn -0.157353 0.788030 -0.595188
vn -0.502339 0.820329 -0.273342
vn -0.612497 0.783436 0.105245
vn -0.458597 0.838085 0.295470
vn -0.194123 0.872583 0.448236
vn 0.160897 0.862021 0.480657
vn 0.462138 0.822122 0.332482
vn 0.634971 0.772054 0.027305
vn 0.217608 0.824839 -0.521811
vn 0.571474 0.776953 -0.264123
vn -0.239604 0.841278 -0.484605
vn -0.489794 0.854402 -0.173490
vn -0.531587 0.816976 0.223531
vn -0.361348 0.824799 0.434895
vn -0.149136 0.865897 0.477473
vn 0.074052 0.866582 0.493510
vn 0.340371 0.811201 0.475501
vn 0.595421 0.786478 0.164096
vn 0.026971 0.941926 -0.334736
vn 0.468792 0.878536 -0.091702
vn -0.340785 0.905147 -0.254117
vn -0.508428 0.861015 0.012405
vn -0.558380 0.767371 0.315204
vn -0.465966 0.668748 0.579354
vn -0.185480 0.603884 0.775191
vn 0.179434 0.584730 0.791135
vn 0.426888 0.615524 0.662494
vn 0.567132 0.735968 0.369747
vn 0.246859 0.901416 -0.355684
vn -0.277570 0.842108 -0.462396
vn -0.590822 0.743584 -0.313069
vn -0.756945 0.651696 0.048239
vn -0.675861 0.602694 0.424230
vn -0.447309 0.578605 0.682005
vn 0.026088 0.543044 0.839299
vn 0.346781 0.536641 0.769259
vn 0.598225 0.593548 0.538356
vn 0.642030 0.760803 0.094741
vn -0.613248 0.175850 0.770068
vn 0.036791 0.643005 0.764977
vn 0.036791 0.643006 0.764977
vn -0.555656 0.238801 0.796380
vn 0.221985 0.972808 0.066091
vn 0.221985 0.972808 0.066091
vn 0.221985 0.972808 0.066091
vn 0.221985 0.972808 0.066091
vn -0.375817 0.417977 -0.827078
vn -0.742951 0.112938 -0.659749
vn -0.803076 0.035532 -0.594816
vn -0.375817 0.417977 -0.827078
vn -0.918929 -0.215584 -0.330292
vn -0.918929 -0.215584 -0.330292
vn -0.846446 -0.224711 0.482736
vn -0.846446 -0.224711 0.482736
vn -0.716225 0.657032 0.235222
vn -0.579150 0.796647 0.173030
vn -0.727725 0.680336 0.086942
vn -0.642481 0.766219 -0.011247
vn -0.786471 0.610719 -0.092115
vn -0.878506 0.458204 0.135191
vn 0.133076 0.508171 0.850913
vn 0.145099 0.969626 0.196906
vn 0.145099 0.969626 0.196906
vn 0.139192 0.582052 0.801150
vn -0.433417 0.837908 -0.331753
vn -0.433416 0.837908 -0.331753
vn -0.433417 0.837908 -0.331753
vn -0.433417 0.837908 -0.331753
vn -0.968986 -0.222948 -0.106583
vn -0.841639 -0.417431 0.342630
vn -0.779457 -0.448385 0.437490
vn -0.968986 -0.222948 -0.106583
vn -0.506133 -0.504695 0.699365
vn -0.506133 -0.504695 0.699365
vn 0.074194 -0.013881 0.997147
vn 0.074194 -0.013881 0.997147
vn -0.555655 0.550785 0.622802
vn -0.618283 0.643802 0.450828
vn -0.673567 0.478548 0.563293
vn -0.751649 0.499993 0.430153
vn -0.778122 0.307727 0.547567
vn -0.577429 0.310227 0.755206
vn -0.603231 -0.129784 0.786936
vn 0.168119 -0.047626 0.984616
vn 0.168119 -0.047626 0.984616
vn -0.530538 -0.124333 0.838493
vn 0.557243 0.545339 0.626168
vn 0.557243 0.545339 0.626168
vn 0.557243 0.545339 0.626168
vn 0.557243 0.545339 0.626168
vn -0.075164 0.942643 -0.325230
vn -0.548817 0.765512 -0.335845
vn -0.641788 0.694251 -0.325766
vn -0.075164 0.942643 -0.325230
vn -0.878136 0.399998 -0.262449
vn -0.878136 0.399998 -0.262449
vn -0.926979 -0.139505 0.348208
vn -0.926979 -0.139505 0.348208
vn -0.444705 0.572654 0.688697
vn -0.258310 0.656310 0.708896
vn -0.426151 0.685294 0.590565
vn -0.302393 0.773724 0.556695
vn -0.481355 0.770787 0.417355
vn -0.653965 0.558661 0.510126
vn 0.379005 0.918619 0.111782
vn -0.417229 0.888955 0.188888
vn -0.417229 0.888955 0.188888
vn 0.295444 0.947139 0.125066
vn -0.700319 0.303768 0.645971
vn -0.700319 0.303768 0.645971
vn -0.700319 0.303768 0.645971
vn -0.700319 0.303768 0.645971
vn 0.156779 -0.528629 0.834250
vn 0.617039 -0.374274 0.692230
vn 0.704233 -0.323184 0.632145
vn 0.156779 -0.528628 0.834250
vn 0.916141 -0.128861 0.379580
vn 0.916141 -0.128861 0.379580
vn 0.805271 0.592732 0.014397
vn 0.805271 0.592732 0.014397
vn 0.251306 0.605527 0.755104
vn 0.066031 0.556122 0.828474
vn 0.258783 0.480175 0.838131
vn 0.148006 0.394746 0.906791
vn 0.356938 0.310237 0.881106
vn 0.499657 0.494852 0.710960
vn 0.808272 0.210132 -0.550037
vn 0.272183 0.804226 -0.528334
vn 0.272183 0.804226 -0.528334
vn 0.771356 0.289717 -0.566634
vn -0.020584 0.981802 0.188789
vn -0.020584 0.981802 0.188789
vn -0.020584 0.981802 0.188789
vn -0.020584 0.981802 0.188789
vn 0.224465 0.091657 0.970162
vn 0.561190 -0.240981 0.791830
vn 0.620855 -0.311703 0.719292
vn 0.224465 0.091657 0.970162
vn 0.752608 -0.508318 0.418563
vn 0.752608 -0.508318 0.418563
vn 0.886282 -0.294169 -0.357728
vn 0.886282 -0.294169 -0.357728
vn 0.857916 0.500946 0.114162
vn 0.736866 0.649308 0.188224
vn 0.835770 0.482578 0.261929
vn 0.745373 0.558945 0.363317
vn 0.834220 0.357934 0.419477
vn 0.951598 0.250076 0.178670
vn 0.180322 0.958191 -0.222158
vn 0.077426 0.824602 0.560390
vn 0.077426 0.824602 0.560390
vn 0.174117 0.975458 -0.134777
vn 0.468009 0.201021 0.860557
vn 0.468009 0.201021 0.860557
vn 0.468009 0.201021 0.860557
vn 0.468009 0.201021 0.860557
vn 0.855871 -0.516145 -0.032852
vn 0.818366 -0.301449 -0.489291
vn 0.778607 -0.238624 -0.580370
vn 0.855871 -0.516145 -0.032852
vn 0.577125 -0.014808 -0.816521
vn 0.577125 -0.014808 -0.816521
vn 0.185779 0.691681 -0.697900
vn 0.185779 0.691681 -0.697900
vn 0.783201 0.621749 0.004871
vn 0.813896 0.547706 0.193884
vn 0.867632 0.497207 0.000039
vn 0.910968 0.397157 0.111376
vn 0.934018 0.340785 -0.107128
vn 0.797486 0.544807 -0.259231
s 1
g gravel
usemtl initialShadingGroup
f 1/1/1 2/2/2 12/3/3 11/4/4
f 2/2/2 3/5/5 13/6/6 12/3/3
f 3/5/5 4/7/7 14/8/8 13/6/6
f 4/7/7 5/9/9 15/10/10 14/8/8
f 5/9/9 6/11/11 16/12/12 15/10/10
f 6/11/11 7/13/13 17/14/14 16/12/12
f 7/13/13 8/15/15 18/16/16 17/14/14
f 8/15/15 9/17/17 19/18/18 18/16/16
f 9/17/17 10/19/19 20/20/20 19/18/18
f 10/19/19 1/1/1 11/4/4 20/20/20
f 11/4/4 12/3/3 22/21/21 21/22/22
f 12/3/3 13/6/6 23/23/23 22/21/21
f 13/6/6 14/8/8 24/24/24 23/23/23
f 14/8/8 15/10/10 25/25/25 24/24/24
f 15/10/10 16/12/12 26/26/26 25/25/25
f 16/12/12 17/14/14 27/27/27 26/26/26
f 17/14/14 18/16/16 28/28/28 27/27/27
f 18/16/16 19/18/18 29/29/29 28/28/28
f 19/18/18 20/20/20 30/30/30 29/29/29
f 20/20/20 11/4/4 21/22/22 30/30/30
f 21/22/22 22/21/21 32/31/31 31/32/32
f 22/21/21 23/23/23 33/33/33 32/31/31
f 23/23/23 24/24/24 34/34/34 33/33/33
f 24/24/24 25/25/25 35/35/35 34/34/34
f 25/25/25 26/26/26 36/36/36 35/35/35
f 26/26/26 27/27/27 37/37/37 36/36/36
f 27/27/27 28/28/28 38/38/38 37/37/37
f 28/28/28 29/29/29 39/39/39 38/38/38
f 29/29/29 30/30/30 40/40/40 39/39/39
f 30/30/30 21/22/22 31/32/32 40/40/40
f 31/32/32 32/31/31 42/41/41 41/42/42
f 32/31/31 33/33/33 43/43/43 42/41/41
f 33/33/33 34/34/34 44/44/44 43/43/43
f 34/34/34 35/35/35 45/45/45 44/44/44
f 35/35/35 36/36/36 46/46/46 45/45/45
f 36/36/36 37/37/37 47/47/47 46/46/46
f 37/37/37 38/38/38 48/48/48 47/47/47
f 38/38/38 39/39/39 49/49/49 48/48/48
f 39/39/39 40/40/40 50/50/50 49/49/49
f 40/40/40 31/32/32 41/42/42 50/50/50
f 41/42/42 42/41/41 52/51/51 51/52/52
f 42/41/41 43/43/43 53/53/53 52/51/51
f 43/43/43 44/44/44 54/54/54 53/53/53
f 44/44/44 45/45/45 55/55/55 54/54/54
f 45/45/45 46/46/46 56/56/56 55/55/55
f 46/46/46 47/47/47 57/57/57 56/56/56
f 47/47/47 48/48/48 58/58/58 57/57/57
f 48/48/48 49/49/49 59/59/59 58/58/58
f 49/49/49 50/50/50 60/60/60 59/59/59
f 50/50/50 41/42/42 51/52/52 60/60/60
f 51/52/52 52/51/51 61/61/61
f 52/51/51 53/53/53 61/61/62
f 53/53/53 54/54/54 61/61/63
f 54/54/54 55/55/55 61/61/64
f 55/55/55 56/56/56 61/61/65
f 56/56/56 57/57/57 61/61/66
f 57/57/57 58/58/58 61/61/67
f 58/58/58 59/59/59 61/61/68
f 59/59/59 60/60/60 61/61/69
f 60/60/60 51/52/52 61/61/70
s 2
f 62/62/71 63/63/72 68/64/73 67/65/74
s off
f 63/63/75 64/66/76 69/67/77 68/64/78
s 3
f 64/66/79 65/68/80 70/69/81 69/67/82
f 65/68/80 66/70/83 71/71/84 70/69/81
s 2
f 66/70/85 62/62/71 67/65/74 71/71/86
s 4
f 67/65/87 68/64/88 72/72/89
f 68/64/88 69/67/90 72/72/89
f 69/67/90 70/69/91 72/72/89
f 70/69/91 71/71/92 72/72/89
f 71/71/92 67/65/87 72/72/89
s 5
f 73/73/93 74/74/94 79/75/95 78/76/96
s off
f 74/74/97 75/77/98 80/78/99 79/75/100
s 6
f 75/77/101 76/79/102 81/80/103 80/78/104
f 76/79/102 77/81/105 82/82/106 81/80/103
s 5
f 77/81/107 73/73/93 78/76/96 82/82/108
s 7
f 78/76/109 79/75/110 83/83/111
f 79/75/110 80/78/112 83/83/111
f 80/78/112 81/80/113 83/83/111
f 81/80/113 82/82/114 83/83/111
f 82/82/114 78/76/109 83/83/111
s 8
f 84/84/115 85/85/116 90/86/117 89/87/118
s off
f 85/85/119 86/88/120 91/89/121 90/86/122
s 9
f 86/88/123 87/90/124 92/91/125 91/89/126
f 87/90/124 88/92/127 93/93/128 92/91/125
s 8
f 88/92/129 84/84/115 89/87/118 93/93/130
s 10
f 89/87/131 90/86/132 94/94/133
f 90/86/132 91/89/134 94/94/133
f 91/89/134 92/91/135 94/94/133
f 92/91/135 93/93/136 94/94/133
f 93/93/136 89/87/131 94/94/133
s 11
f 95/95/137 96/96/138 101/97/139 100/98/140
s off
f 96/96/141 97/99/142 102/100/143 101/97/144
s 12
f 97/99/145 98/101/146 103/102/147 102/100/148
f 98/101/146 99/103/149 104/104/150 103/102/147
s 11
f 99/103/151 95/95/137 100/98/140 104/104/152
s 13
f 100/98/153 101/97/154 105/105/155
f 101/97/154 102/100/156 105/105/155
f 102/100/156 103/102/157 105/105/155
f 103/102/157 104/104/158 105/105/155
f 104/104/158 100/98/153 105/105/155
s 14
f 106/106/159 107/107/160 112/108/161 111/109/162
s off
f 107/107/163 108/110/164 113/111/165 112/108/166
s 15
f 108/110/167 109/112/168 114/113/169 113/111/170
f 109/112/168 110/114/171 115/115/172 114/113/169
s 14
f 110/114/173 106/106/159 111/109/162 115/115/174
s 16
f 111/109/175 112/108/176 116/116/177
f 112/108/176 113/111/178 116/116/177
f 113/111/178 114/113/179 116/116/177
f 114/113/179 115/115/180 116/116/177
f 115/115/180 111/109/175 116/116/177
s 17
f 117/117/181 118/118/182 123/119/183 122/120/184
s off
f 118/118/185 119/121/186 124/122/187 123/119/188
s 18
f 119/121/189 120/123/190 125/124/191 124/122/192
f 120/123/190 121/125/193 126/126/194 125/124/191
s 17
f 121/125/195 117/117/181 122/120/184 126/126/196
s 19
f 122/120/197 123/119/198 127/127/199
f 123/119/198 124/122/200 127/127/199
f 124/122/200 125/124/201 127/127/199
f 125/124/201 126/126/202 127/127/199
f 126/126/202 122/120/197 127/127/199
