# This file uses centimeters as units for non-parametric coordinates.

mtllib milk.mtl
g default
v 0.030073 0.607435 0.039241
v 0.000000 0.616243 0.030433
v -0.030073 0.607435 0.039241
v -0.042529 0.586170 0.060506
v -0.030073 0.564905 0.081770
v 0.000000 0.556097 0.090579
v 0.030073 0.564905 0.081770
v 0.042529 0.586170 0.060506
v 0.000000 0.613267 0.087603
v 0.030073 0.623694 0.055501
v 0.028139 0.629990 0.064532
v 0.023469 0.629862 0.071008
v 0.000000 0.632502 0.046693
v 0.000000 0.638232 0.056290
v 0.000000 0.636736 0.064134
v -0.030073 0.623694 0.055501
v -0.028139 0.629990 0.064532
v -0.023469 0.629862 0.071008
v -0.042529 0.602429 0.076765
v -0.039794 0.610093 0.084429
v -0.033190 0.613267 0.087603
v -0.030073 0.581165 0.098030
v -0.028139 0.590196 0.104326
v -0.023469 0.596672 0.104198
v 0.000000 0.572357 0.106838
v 0.000000 0.581954 0.112567
v 0.000000 0.589798 0.111072
v 0.030073 0.581165 0.098030
v 0.028139 0.590196 0.104326
v 0.023469 0.596672 0.104198
v 0.042529 0.602429 0.076765
v 0.039794 0.610093 0.084429
v 0.033190 0.613267 0.087603
v -0.109920 0.000000 0.107700
v -0.036640 0.000000 0.107700
v 0.036640 0.000000 0.107700
v 0.109920 0.000000 0.107700
v -0.104269 0.174246 0.102163
v -0.034756 0.174246 0.102163
v 0.034756 0.174246 0.102163
v 0.104269 0.174246 0.102163
v -0.110897 0.348492 0.108658
v -0.036966 0.348492 0.108658
v 0.036966 0.348492 0.108658
v 0.110897 0.348492 0.108658
v -0.128421 0.522739 0.125828
v -0.042807 0.522739 0.125828
v 0.042807 0.522739 0.125828
v 0.128421 0.522739 0.125828
v -0.128421 0.522739 0.041943
v 0.128421 0.522739 0.041943
v -0.128421 0.522739 -0.041943
v 0.128421 0.522739 -0.041943
v -0.128421 0.522739 -0.125828
v -0.042807 0.522739 -0.125828
v 0.042807 0.522739 -0.125828
v 0.128421 0.522739 -0.125828
v -0.110897 0.348492 -0.108658
v -0.036966 0.348492 -0.108658
v 0.036966 0.348492 -0.108658
v 0.110897 0.348492 -0.108658
v -0.104269 0.174246 -0.102163
v -0.034756 0.174246 -0.102163
v 0.034756 0.174246 -0.102163
v 0.104269 0.174246 -0.102163
v -0.109920 0.000000 -0.107700
v -0.036640 0.000000 -0.107700
v 0.036640 0.000000 -0.107700
v 0.109920 0.000000 -0.107700
v -0.109920 0.000000 -0.035900
v 0.109920 0.000000 -0.035900
v -0.109920 0.000000 0.035900
v 0.109920 0.000000 0.035900
v 0.104269 0.174246 -0.034054
v 0.104269 0.174246 0.034054
v 0.110897 0.348492 -0.036219
v 0.110897 0.348492 0.036219
v -0.104269 0.174246 -0.034054
v -0.104269 0.174246 0.034054
v -0.110897 0.348492 -0.036219
v -0.110897 0.348492 0.036219
v -0.109920 0.653158 0.000000
v -0.036640 0.653158 0.000000
v 0.036640 0.653158 0.000000
v 0.109920 0.653158 0.000000
v -0.090442 0.599716 0.029291
v -0.090442 0.599493 0.012996
v -0.095655 0.627462 0.007382
v -0.095655 0.627239 0.003560
v -0.090442 0.599493 -0.012996
v -0.095655 0.627239 -0.003560
v -0.090442 0.599716 -0.029291
v -0.095655 0.627462 -0.007382
v 0.090442 0.599716 0.029291
v 0.090442 0.599493 0.012996
v 0.095655 0.627239 0.003560
v 0.095655 0.627462 0.007382
v 0.090442 0.599493 -0.012996
v 0.095655 0.627239 -0.003560
v 0.090442 0.599716 -0.029291
v 0.095655 0.627462 -0.007382
vt 0.925600 0.622759
vt 0.954225 0.627593
vt 0.949604 0.648994
vt 0.922309 0.642635
vt 0.982215 0.633635
vt 0.977594 0.655037
vt 0.920484 0.652852
vt 0.947427 0.659082
vt 0.973617 0.664735
vt 0.924681 0.658544
vt 0.946525 0.663260
vt 0.968368 0.667976
vt 0.798710 0.615401
vt 0.827714 0.614082
vt 0.827716 0.635977
vt 0.799693 0.635523
vt 0.856718 0.615396
vt 0.855738 0.635518
vt 0.800068 0.645895
vt 0.827716 0.646297
vt 0.855364 0.645891
vt 0.805370 0.650573
vt 0.827717 0.650571
vt 0.850063 0.650569
vt 0.642437 0.034147
vt 0.703626 0.034147
vt 0.698907 0.182642
vt 0.640864 0.182642
vt 0.704442 0.331137
vt 0.642709 0.331137
vt 0.581248 0.034147
vt 0.582821 0.182642
vt 0.719075 0.479632
vt 0.647587 0.479632
vt 0.580976 0.331137
vt 0.520059 0.034147
vt 0.524777 0.182642
vt 0.636804 0.545232
vt 0.622918 0.545043
vt 0.576098 0.479632
vt 0.519242 0.331137
vt 0.611842 0.590777
vt 0.618133 0.568878
vt 0.614876 0.568688
vt 0.600767 0.545043
vt 0.504610 0.479632
vt 0.608808 0.568688
vt 0.586881 0.545232
vt 0.605551 0.568878
vt 0.045986 0.034147
vt 0.107175 0.034147
vt 0.108748 0.182642
vt 0.050704 0.182642
vt 0.168364 0.034147
vt 0.166791 0.182642
vt 0.106903 0.331137
vt 0.045169 0.331137
vt 0.229553 0.034147
vt 0.224834 0.182642
vt 0.168636 0.331137
vt 0.102025 0.479632
vt 0.030537 0.479632
vt 0.230369 0.331137
vt 0.173513 0.479632
vt 0.126694 0.545043
vt 0.112807 0.545232
vt 0.245002 0.479632
vt 0.148845 0.545043
vt 0.134735 0.568688
vt 0.131478 0.568878
vt 0.137769 0.590777
vt 0.162731 0.545232
vt 0.140803 0.568688
vt 0.144060 0.568878
vt 0.860707 0.653359
vt 0.888969 0.639581
vt 0.888023 0.648433
vt 0.890127 0.628750
vt 0.913679 0.659022
vt 0.885191 0.674919
vt 0.892089 0.610400
vt 0.847735 0.670915
vt 0.922648 0.678924
vt 0.856703 0.690816
vt 0.909675 0.696479
vt 0.882360 0.701405
vt 0.741753 0.659031
vt 0.735701 0.652286
vt 0.766462 0.639588
vt 0.767409 0.648440
vt 0.732428 0.642327
vt 0.765303 0.628757
vt 0.794724 0.653364
vt 0.730466 0.623978
vt 0.763341 0.610407
vt 0.281603 0.034147
vt 0.344053 0.034147
vt 0.345658 0.182642
vt 0.286419 0.182642
vt 0.406503 0.034147
vt 0.404898 0.182642
vt 0.343775 0.331137
vt 0.280770 0.331137
vt 0.468953 0.034147
vt 0.464137 0.182642
vt 0.406781 0.331137
vt 0.338797 0.479632
vt 0.265836 0.479632
vt 0.469786 0.331137
vt 0.411759 0.479632
vt 0.344053 0.590777
vt 0.281603 0.590777
vt 0.484720 0.479632
vt 0.406503 0.590777
vt 0.468953 0.590777
vt 0.966274 0.479632
vt 0.893313 0.479632
vt 0.888335 0.331137
vt 0.951340 0.331137
vt 0.950507 0.590777
vt 0.888057 0.590777
vt 0.820351 0.479632
vt 0.825329 0.331137
vt 0.886452 0.182642
vt 0.945691 0.182642
vt 0.825607 0.590777
vt 0.747390 0.479632
vt 0.762323 0.331137
vt 0.827212 0.182642
vt 0.888057 0.034147
vt 0.950507 0.034147
vt 0.763157 0.590777
vt 0.767973 0.182642
vt 0.825607 0.034147
vt 0.763157 0.034147
vn 0.707106 0.500001 -0.500001
vn 0.000000 0.707107 -0.707106
vn 0.000000 0.707107 -0.707106
vn 0.707106 0.500001 -0.500000
vn -0.707106 0.500001 -0.500001
vn -0.707106 0.500000 -0.500000
vn -1.000000 0.000000 -0.000001
vn -1.000000 -0.000000 -0.000000
vn -0.707107 -0.500000 0.499999
vn -0.707107 -0.500000 0.499999
vn -0.000000 -0.707106 0.707107
vn -0.000000 -0.707106 0.707107
vn 0.707107 -0.500000 0.500000
vn 0.707107 -0.500000 0.500000
vn 1.000000 0.000000 -0.000001
vn 1.000000 -0.000000 -0.000000
vn -0.000001 0.707106 0.707108
vn 0.000000 0.707108 0.707106
vn 0.000000 0.707107 0.707107
vn 0.000001 0.707106 0.707108
vn 0.000000 0.707107 0.707107
vn 0.000001 0.707108 0.707106
vn 0.000000 0.707107 0.707106
vn -0.000001 0.707107 0.707106
vn 0.000000 0.707105 0.707108
vn 0.685609 0.657835 -0.311758
vn 0.628485 0.768453 -0.120359
vn 0.888811 0.324048 0.324048
vn 0.969595 0.173039 0.173041
vn 0.397532 0.865879 0.303680
vn 0.562198 0.584780 0.584779
vn -0.000000 0.952532 -0.304439
vn -0.000000 0.982313 0.187245
vn -0.000000 0.858645 -0.512570
vn -0.628485 0.768453 -0.120359
vn -0.397533 0.865879 0.303680
vn -0.685609 0.657835 -0.311759
vn -0.888812 0.324048 0.324048
vn -0.562198 0.584779 0.584780
vn -0.969595 0.173039 0.173041
vn -0.628485 -0.120357 0.768454
vn -0.397533 0.303680 0.865879
vn -0.685607 -0.311757 0.657837
vn 0.000000 -0.304437 0.952533
vn 0.000001 0.187245 0.982313
vn -0.000000 -0.512568 0.858647
vn 0.628485 -0.120357 0.768454
vn 0.397534 0.303681 0.865878
vn 0.685608 -0.311757 0.657837
vn 0.000000 0.031759 0.999496
vn 0.000000 0.031759 0.999496
vn 0.000000 -0.002828 0.999996
vn 0.000000 -0.002888 0.999996
vn 0.000000 0.031759 0.999496
vn 0.000000 -0.002828 0.999996
vn 0.000000 0.031759 0.999496
vn 0.000000 -0.002888 0.999996
vn 0.000000 -0.069366 0.997591
vn 0.000000 -0.070667 0.997500
vn 0.000000 -0.069366 0.997591
vn 0.000000 -0.070667 0.997500
vn 0.000000 -0.098064 0.995180
vn 0.000000 -0.098064 0.995180
vn 0.000000 -0.098064 0.995180
vn 0.000000 -0.098064 0.995180
vn 0.000000 -0.098064 -0.995180
vn 0.000000 -0.098064 -0.995180
vn 0.000000 -0.069366 -0.997591
vn 0.000000 -0.070667 -0.997500
vn 0.000000 -0.098064 -0.995180
vn 0.000000 -0.069366 -0.997591
vn 0.000000 -0.098064 -0.995180
vn 0.000000 -0.070667 -0.997500
vn 0.000000 -0.002828 -0.999996
vn 0.000000 -0.002888 -0.999996
vn 0.000000 -0.002828 -0.999996
vn 0.000000 -0.002888 -0.999996
vn 0.000000 0.031759 -0.999496
vn 0.000000 0.031759 -0.999496
vn 0.000000 0.031759 -0.999496
vn 0.000000 0.031759 -0.999496
vn 0.999475 0.032413 0.000000
vn 0.999475 0.032413 0.000000
vn 0.999996 -0.002946 0.000000
vn 0.999996 -0.002886 0.000000
vn 0.999475 0.032413 0.000000
vn 0.999996 -0.002886 0.000000
vn 0.999475 0.032413 0.000000
vn 0.999996 -0.002946 0.000000
vn 0.997398 -0.072090 0.000000
vn 0.997491 -0.070789 0.000000
vn 0.997491 -0.070789 0.000000
vn 0.997398 -0.072090 0.000000
vn 0.994981 -0.100064 0.000000
vn 0.994981 -0.100064 0.000000
vn 0.994981 -0.100065 0.000000
vn 0.994981 -0.100065 0.000000
vn -0.999475 0.032413 0.000000
vn -0.999475 0.032413 0.000000
vn -0.999996 -0.002886 0.000000
vn -0.999996 -0.002946 0.000000
vn -0.999475 0.032413 0.000000
vn -0.999996 -0.002886 0.000000
vn -0.999475 0.032413 0.000000
vn -0.999996 -0.002946 0.000000
vn -0.997491 -0.070789 0.000000
vn -0.997398 -0.072090 0.000000
vn -0.997491 -0.070789 0.000000
vn -0.997398 -0.072090 0.000000
vn -0.994981 -0.100065 0.000000
vn -0.994981 -0.100064 0.000000
vn -0.994981 -0.100065 0.000000
vn -0.994981 -0.100065 0.000000
vn 0.000000 0.694325 0.719661
vn 0.000000 0.694325 0.719661
vn 0.000000 0.694325 0.719661
vn 0.000000 0.694325 0.719661
vn -0.983209 -0.182438 0.004041
vn -0.983209 -0.182438 0.004041
vn -0.983209 -0.182438 0.004041
vn -0.983209 -0.182438 0.004041
vn 0.000000 0.694325 0.719661
vn 0.000000 0.694325 0.719661
vn 0.000000 0.694325 0.719661
vn 0.000000 0.694325 0.719661
vn 0.000000 0.694325 0.719661
vn 0.000000 0.694325 0.719661
vn 0.000000 0.694325 0.719661
vn 0.000000 0.694325 0.719661
vn 0.983209 -0.182437 0.004040
vn 0.983209 -0.182437 0.004040
vn 0.983209 -0.182437 0.004040
vn 0.983209 -0.182437 0.004040
vn -0.982805 -0.184645 0.000000
vn -0.982805 -0.184645 0.000000
vn -0.982805 -0.184645 0.000000
vn -0.982805 -0.184645 0.000000
vn 0.982805 -0.184645 -0.000000
vn 0.982805 -0.184645 -0.000000
vn 0.982805 -0.184645 -0.000000
vn 0.982805 -0.184645 -0.000000
vn 0.000000 0.694325 -0.719661
vn 0.000000 0.694325 -0.719661
vn 0.000000 0.694325 -0.719661
vn 0.000000 0.694325 -0.719661
vn -0.983209 -0.182437 -0.004040
vn -0.983209 -0.182437 -0.004040
vn -0.983209 -0.182437 -0.004040
vn -0.983209 -0.182437 -0.004040
vn 0.000000 0.694325 -0.719661
vn 0.000000 0.694325 -0.719661
vn 0.000000 0.694325 -0.719661
vn 0.000000 0.694325 -0.719661
vn 0.983209 -0.182438 -0.004039
vn 0.983209 -0.182438 -0.004039
vn 0.983209 -0.182438 -0.004039
vn 0.983209 -0.182438 -0.004039
vn 0.000000 0.694325 -0.719661
vn 0.000000 0.694325 -0.719661
vn 0.000000 0.694325 -0.719661
vn 0.000000 0.694325 -0.719661
vn -0.896611 0.442819 -0.000573
vn -0.896850 0.442333 -0.000984
vn -0.896850 0.442333 -0.000984
vn -0.896493 0.443057 -0.000371
vn -0.546155 -0.546842 -0.634570
vn -0.546155 -0.546842 -0.634570
vn -0.546155 -0.546842 -0.634570
vn -0.546155 -0.546842 -0.634570
vn -0.876672 -0.481089 0.000000
vn -0.876649 -0.481015 0.010578
vn -0.877359 -0.479023 0.027905
vn -0.896611 0.442819 0.000573
vn -0.896493 0.443057 0.000371
vn -0.876649 -0.481015 -0.010578
vn -0.896850 0.442333 0.000984
vn -0.896850 0.442333 0.000984
vn -0.877359 -0.479023 -0.027905
vn -0.546155 -0.546841 0.634570
vn -0.546155 -0.546841 0.634570
vn -0.546155 -0.546841 0.634570
vn -0.546155 -0.546841 0.634570
vn 0.896850 0.442333 -0.000984
vn 0.896611 0.442819 -0.000573
vn 0.896493 0.443057 -0.000371
vn 0.896850 0.442333 -0.000984
vn 0.876672 -0.481089 0.000000
vn 0.877359 -0.479023 0.027905
vn 0.876649 -0.481015 0.010578
vn 0.546155 -0.546841 -0.634570
vn 0.546155 -0.546841 -0.634570
vn 0.546155 -0.546841 -0.634570
vn 0.546155 -0.546841 -0.634570
vn 0.896611 0.442819 0.000573
vn 0.896493 0.443057 0.000371
vn 0.876649 -0.481015 -0.010578
vn 0.896850 0.442333 0.000984
vn 0.896850 0.442333 0.000984
vn 0.546155 -0.546841 0.634570
vn 0.546155 -0.546841 0.634570
vn 0.546155 -0.546841 0.634570
vn 0.546155 -0.546841 0.634570
vn 0.877359 -0.479023 -0.027905
s 1
g milk
usemtl initialShadingGroup
f 1/17/1 2/81/2 13/78/3 10/18/4
f 2/81/2 3/1/5 16/4/6 13/78/3
f 3/1/5 4/2/7 19/3/8 16/4/6
f 4/2/7 5/5/9 22/6/10 19/3/8
f 5/94/9 6/95/11 25/92/12 22/91/10
f 6/95/11 7/13/13 28/16/14 25/92/12
f 7/13/13 8/14/15 31/15/16 28/16/14
f 8/14/15 1/17/1 10/18/4 31/15/16
s 2
f 12/75/17 15/77/18 9/80/19
f 15/77/18 18/79/20 9/80/19
f 18/79/20 21/83/21 9/80/19
f 21/83/21 24/85/22 9/80/19
f 24/85/22 27/86/23 9/80/19
f 27/86/23 30/84/24 9/80/19
f 30/84/24 33/82/25 9/80/19
f 33/82/25 12/75/17 9/80/19
s 3
f 10/18/26 11/21/27 32/20/28 31/15/29
f 11/21/27 12/24/30 33/23/31 32/20/28
f 12/75/30 11/21/27 14/76/32 15/77/33
f 11/21/27 10/18/26 13/78/34 14/76/32
f 15/77/33 14/76/32 17/7/35 18/79/36
f 14/76/32 13/78/34 16/4/37 17/7/35
f 18/10/36 17/7/35 20/8/38 21/11/39
f 17/7/35 16/4/37 19/3/40 20/8/38
f 21/11/39 20/8/38 23/9/41 24/12/42
f 20/8/38 19/3/40 22/6/43 23/9/41
f 24/87/42 23/88/41 26/89/44 27/90/45
f 23/88/41 22/91/43 25/92/46 26/89/44
f 27/90/45 26/89/44 29/19/47 30/93/48
f 26/89/44 25/92/46 28/16/49 29/19/47
f 30/22/48 29/19/47 32/20/28 33/23/31
f 29/19/47 28/16/49 31/15/29 32/20/28
s 4
f 34/96/50 35/97/51 39/98/52 38/99/53
f 35/97/51 36/100/54 40/101/55 39/98/52
f 36/100/54 37/104/56 41/105/57 40/101/55
f 38/99/53 39/98/52 43/102/58 42/103/59
f 39/98/52 40/101/55 44/106/60 43/102/58
f 40/101/55 41/105/57 45/109/61 44/106/60
f 42/103/59 43/102/58 47/107/62 46/108/63
f 43/102/58 44/106/60 48/110/64 47/107/62
f 44/106/60 45/109/61 49/113/65 48/110/64
s 5
f 54/116/66 55/117/67 59/118/68 58/119/69
f 55/117/67 56/122/70 60/123/71 59/118/68
f 56/122/70 57/127/72 61/128/73 60/123/71
f 58/119/69 59/118/68 63/124/74 62/125/75
f 59/118/68 60/123/71 64/129/76 63/124/74
f 60/123/71 61/128/73 65/133/77 64/129/76
f 62/125/75 63/124/74 67/130/78 66/131/79
f 63/124/74 64/129/76 68/134/80 67/130/78
f 64/129/76 65/133/77 69/135/81 68/134/80
s 6
f 71/25/82 69/26/83 65/27/84 74/28/85
f 73/31/86 71/25/82 74/28/85 75/32/87
f 37/36/88 73/31/86 75/32/87 41/37/89
f 74/28/85 65/27/84 61/29/90 76/30/91
f 75/32/87 74/28/85 76/30/91 77/35/92
f 41/37/89 75/32/87 77/35/92 45/41/93
f 76/30/91 61/29/90 57/33/94 53/34/95
f 77/35/92 76/30/91 53/34/95 51/40/96
f 45/41/93 77/35/92 51/40/96 49/46/97
s 7
f 66/50/98 70/51/99 78/52/100 62/53/101
f 70/51/99 72/54/102 79/55/103 78/52/100
f 72/54/102 34/58/104 38/59/105 79/55/103
f 62/53/101 78/52/100 80/56/106 58/57/107
f 78/52/100 79/55/103 81/60/108 80/56/106
f 79/55/103 38/59/105 42/63/109 81/60/108
f 58/57/107 80/56/106 52/61/110 54/62/111
f 80/56/106 81/60/108 50/64/112 52/61/110
f 81/60/108 42/63/109 46/67/113 50/64/112
s off
f 46/108/114 47/107/115 83/111/116 82/112/117
f 87/68/118 86/72/119 88/74/120 89/73/121
f 47/107/122 48/110/123 84/114/124 83/111/125
f 48/110/126 49/113/127 85/115/128 84/114/129
f 94/48/130 95/45/131 96/47/132 97/49/133
f 90/65/134 87/68/135 89/73/136 91/69/137
f 95/45/138 98/39/139 99/44/140 96/47/141
f 55/117/142 54/116/143 82/120/144 83/121/145
f 92/66/146 90/65/147 91/69/148 93/70/149
f 56/122/150 55/117/151 83/121/152 84/126/153
f 98/39/154 100/38/155 101/43/156 99/44/157
f 57/127/158 56/122/159 84/126/160 85/132/161
s 8
f 50/64/162 46/67/163 86/72/164 87/68/165
s off
f 46/67/166 82/71/167 88/74/168 86/72/169
s 9
f 82/71/170 89/73/171 88/74/172
s 8
f 52/61/173 50/64/162 87/68/165 90/65/174
s 9
f 82/71/170 91/69/175 89/73/171
s 8
f 54/62/176 52/61/173 90/65/174 92/66/177
s 9
f 82/71/170 93/70/178 91/69/175
s off
f 82/71/179 54/62/180 92/66/181 93/70/182
s 10
f 49/46/183 51/40/184 95/45/185 94/48/186
s 11
f 85/42/187 97/49/188 96/47/189
s off
f 85/42/190 49/46/191 94/48/192 97/49/193
s 10
f 51/40/184 53/34/194 98/39/195 95/45/185
s 11
f 85/42/187 96/47/189 99/44/196
s 10
f 53/34/194 57/33/197 100/38/198 98/39/195
s off
f 57/33/199 85/42/200 101/43/201 100/38/202
s 11
f 85/42/187 99/44/196 101/43/203
