# This file uses centimeters as units for non-parametric coordinates.

mtllib rice.mtl
g default
v 0.075725 0.000000 -0.043720
v 0.043720 0.000000 -0.075725
v 0.000000 0.000000 -0.087439
v -0.043720 0.000000 -0.075725
v -0.075725 0.000000 -0.043720
v -0.087439 0.000000 0.000000
v -0.075725 0.000000 0.043720
v -0.043720 0.000000 0.075725
v 0.000000 0.000000 0.087439
v 0.043720 0.000000 0.075725
v 0.075725 0.000000 0.043720
v 0.087439 0.000000 0.000000
v 0.075725 0.012893 -0.043720
v 0.043720 0.012893 -0.075725
v 0.000000 0.012893 -0.087439
v -0.043720 0.012893 -0.075725
v -0.075725 0.012893 -0.043720
v -0.087439 0.012893 0.000000
v -0.075725 0.012893 0.043720
v -0.043720 0.012893 0.075725
v 0.000000 0.012893 0.087439
v 0.043720 0.012893 0.075725
v 0.075725 0.012893 0.043720
v 0.087439 0.012893 0.000000
v 0.101849 0.040326 -0.058802
v 0.058802 0.040326 -0.101849
v 0.000000 0.040326 -0.117605
v -0.058802 0.040326 -0.101849
v -0.101849 0.040326 -0.058802
v -0.117605 0.040326 0.000000
v -0.101849 0.040326 0.058802
v -0.058802 0.040326 0.101849
v 0.000000 0.040326 0.117605
v 0.058802 0.040326 0.101849
v 0.101849 0.040326 0.058802
v 0.117605 0.040326 0.000000
v 0.117647 0.079292 -0.067924
v 0.067923 0.079292 -0.117647
v 0.000000 0.079292 -0.135847
v -0.067924 0.079292 -0.117647
v -0.117647 0.079292 -0.067924
v -0.135847 0.079292 0.000000
v -0.117647 0.079292 0.067924
v -0.067924 0.079292 0.117647
v 0.000000 0.079292 0.135847
v 0.067923 0.079292 0.117647
v 0.117647 0.079292 0.067924
v 0.135847 0.079292 0.000000
v 0.126686 0.128344 -0.073142
v 0.073142 0.128344 -0.126686
v 0.000000 0.128344 -0.146285
v -0.073142 0.128344 -0.126686
v -0.126686 0.128344 -0.073142
v -0.146285 0.128344 0.000000
v -0.126686 0.128344 0.073142
v -0.073142 0.128344 0.126686
v 0.000000 0.128344 0.146285
v 0.073142 0.128344 0.126686
v 0.126686 0.128344 0.073142
v 0.146285 0.128344 0.000000
v 0.129663 0.183250 -0.074861
v 0.074860 0.183250 -0.129663
v 0.000000 0.183250 -0.149721
v -0.074861 0.183250 -0.129663
v -0.129663 0.183250 -0.074861
v -0.149721 0.183250 0.000000
v -0.129663 0.183250 0.074861
v -0.074861 0.183250 0.129663
v 0.000000 0.183250 0.149721
v 0.074860 0.183250 0.129663
v 0.129663 0.183250 0.074861
v 0.149721 0.183250 0.000000
v 0.114752 0.183250 -0.066252
v 0.066252 0.183250 -0.114752
v 0.000000 0.183250 -0.132504
v -0.066252 0.183250 -0.114752
v -0.114752 0.183250 -0.066252
v -0.132504 0.183250 0.000000
v -0.114752 0.183250 0.066252
v -0.066252 0.183250 0.114752
v 0.000000 0.183250 0.132504
v 0.066252 0.183250 0.114752
v 0.114752 0.183250 0.066252
v 0.132504 0.183250 0.000000
v 0.093032 0.211586 -0.053712
v 0.053712 0.223541 -0.093032
v 0.000000 0.211586 -0.107424
v -0.053712 0.211586 -0.093032
v -0.093032 0.223541 -0.053712
v -0.107424 0.211586 0.000000
v -0.093032 0.211586 0.053712
v -0.053712 0.223541 0.093032
v 0.000000 0.211586 0.107424
v 0.053712 0.223541 0.093032
v 0.093032 0.211586 0.053712
v 0.107424 0.223541 0.000000
v 0.047511 0.243122 -0.027431
v 0.027430 0.243122 -0.047511
v 0.000000 0.254738 0.000000
v 0.000000 0.252182 -0.054861
v -0.027430 0.243122 -0.047511
v -0.047511 0.243122 -0.027431
v -0.054861 0.243122 0.000000
v -0.047511 0.250458 0.027431
v -0.027430 0.243122 0.047511
v 0.000000 0.243122 0.054861
v 0.027430 0.243122 0.047511
v 0.047511 0.239628 0.027431
v 0.054861 0.243122 0.000000
vt 0.774596 0.027696
vt 0.843468 0.027696
vt 0.855878 0.047314
vt 0.787006 0.047314
vt 0.912340 0.027696
vt 0.080505 0.047314
vt 0.154750 0.027696
vt 0.142341 0.047314
vt 0.223622 0.027696
vt 0.211212 0.047314
vt 0.292493 0.027696
vt 0.282416 0.047314
vt 0.361366 0.027696
vt 0.354427 0.047314
vt 0.430237 0.027696
vt 0.426721 0.047314
vt 0.499109 0.027696
vt 0.499109 0.047314
vt 0.567981 0.027696
vt 0.571497 0.047314
vt 0.636853 0.027696
vt 0.643791 0.047314
vt 0.705724 0.027696
vt 0.715802 0.047314
vt 0.094009 0.884757
vt 0.212413 0.897839
vt 0.896956 0.978671
vt 0.274970 0.877081
vt 0.333417 0.889177
vt 0.451760 0.900838
vt 0.514213 0.880328
vt 0.571887 0.892448
vt 0.693103 0.903989
vt 0.734865 0.893393
vt 0.855848 0.906341
vt 0.897524 0.895470
vt 0.052410 0.895493
vt 0.874202 0.082480
vt 0.801378 0.082480
vt 0.055719 0.082480
vt 0.124015 0.082480
vt 0.196842 0.082480
vt 0.271642 0.082480
vt 0.347243 0.082480
vt 0.423124 0.082480
vt 0.499109 0.082480
vt 0.575094 0.082480
vt 0.650976 0.082480
vt 0.726575 0.082480
vt 0.881240 0.132430
vt 0.803932 0.132430
vt 0.036137 0.132430
vt 0.116980 0.132430
vt 0.194284 0.132430
vt 0.270708 0.132430
vt 0.346893 0.132430
vt 0.423006 0.132430
vt 0.499109 0.132430
vt 0.575212 0.132430
vt 0.651324 0.132430
vt 0.727512 0.132430
vt 0.887106 0.195308
vt 0.806247 0.195308
vt 0.022312 0.195308
vt 0.111111 0.195308
vt 0.191973 0.195308
vt 0.269826 0.195308
vt 0.346562 0.195308
vt 0.422896 0.195308
vt 0.499109 0.195308
vt 0.575322 0.195308
vt 0.651657 0.195308
vt 0.728391 0.195308
vt 0.945550 0.636740
vt 0.858943 0.723347
vt 0.845339 0.699784
vt 0.921986 0.623136
vt 0.740637 0.755048
vt 0.740637 0.727838
vt 0.622330 0.723347
vt 0.635934 0.699784
vt 0.535723 0.636740
vt 0.559287 0.623136
vt 0.504023 0.518434
vt 0.531232 0.518434
vt 0.175831 0.760024
vt 0.093528 0.758940
vt 0.257548 0.761100
vt 0.333781 0.762103
vt 0.415313 0.763177
vt 0.496738 0.764249
vt 0.573117 0.765255
vt 0.654643 0.766328
vt 0.736598 0.767407
vt 0.818409 0.768484
vt 0.900920 0.769570
vt 0.005452 0.757781
vt 0.175418 0.827455
vt 0.094159 0.805696
vt 0.257509 0.808310
vt 0.332564 0.809298
vt 0.414423 0.830297
vt 0.496729 0.811459
vt 0.571888 0.812449
vt 0.653935 0.833924
vt 0.735941 0.814130
vt 0.816714 0.836362
vt 0.898838 0.816259
vt 0.014839 0.825659
vt 0.535723 0.400127
vt 0.559287 0.413731
vt 0.622330 0.313520
vt 0.635934 0.337084
vt 0.740637 0.281820
vt 0.740637 0.309029
vt 0.858943 0.313520
vt 0.845339 0.337084
vt 0.945550 0.400127
vt 0.921986 0.413731
vt 0.977250 0.518434
vt 0.950041 0.518434
vt 0.728771 0.265693
vt 0.807187 0.265693
vt 0.651800 0.265693
vt 0.575375 0.265693
vt 0.499109 0.265693
vt 0.422843 0.265693
vt 0.346418 0.265693
vt 0.269448 0.265693
vt 0.191031 0.265693
vt 0.108808 0.265693
vt 0.017333 0.265693
vt 0.889411 0.265693
vt 0.975906 0.195308
vt 0.980885 0.265693
vt 0.962080 0.132430
vt 0.942500 0.082480
vt 0.917713 0.047314
vt 0.085878 0.027696
vt 0.989072 0.770731
vt 0.978517 0.838431
vt 0.776330 0.905097
vt 0.613635 0.903636
vt 0.552596 0.880829
vt 0.493793 0.891218
vt 0.375222 0.899901
vt 0.313300 0.877586
vt 0.254531 0.888219
vt 0.135404 0.896260
vt 0.939050 0.906898
vt 0.896968 0.978674
vt 0.733757 0.976620
vt 0.733755 0.976621
vt 0.571883 0.975944
vt 0.532476 0.952202
vt 0.490729 0.974463
vt 0.334310 0.972548
vt 0.293194 0.948859
vt 0.251423 0.971622
vt 0.093243 0.967750
vt 0.093242 0.967750
vn 0.866025 0.000000 -0.500000
vn 0.500000 0.000000 -0.866025
vn 0.500000 0.000000 -0.866025
vn 0.866025 0.000000 -0.500000
vn 0.000000 0.000000 -1.000000
vn 0.000000 0.000000 -1.000000
vn -0.500000 0.000000 -0.866025
vn -0.500000 0.000000 -0.866025
vn -0.866025 0.000000 -0.500000
vn -0.866025 0.000000 -0.500000
vn -1.000000 0.000000 0.000000
vn -1.000000 0.000000 0.000000
vn -0.866025 0.000000 0.500000
vn -0.866025 0.000000 0.500000
vn -0.500000 0.000000 0.866025
vn -0.500000 0.000000 0.866025
vn 0.000000 0.000000 1.000000
vn 0.000000 0.000000 1.000000
vn 0.500000 0.000000 0.866025
vn 0.500000 0.000000 0.866025
vn 0.866025 0.000000 0.500000
vn 0.866025 0.000000 0.500000
vn 1.000000 0.000000 0.000000
vn 1.000000 0.000000 0.000000
vn 0.361348 0.908792 -0.208625
vn 0.251909 0.910601 -0.327641
vn 0.027507 0.999399 0.021108
vn -0.058020 0.897169 -0.437860
vn -0.235051 0.879094 -0.414663
vn -0.322355 0.928143 -0.186112
vn -0.469636 0.882745 0.014298
vn -0.409038 0.896769 0.168799
vn -0.163174 0.914262 0.370808
vn 0.000000 0.908792 0.417249
vn 0.197361 0.933659 0.298880
vn 0.359572 0.909731 0.207600
vn 0.357518 0.933659 0.021480
vn 0.582666 -0.739820 -0.336403
vn 0.336403 -0.739820 -0.582666
vn 0.415544 -0.556142 -0.719743
vn 0.719743 -0.556141 -0.415544
vn 0.000000 -0.739820 -0.672805
vn -0.000000 -0.556142 -0.831087
vn -0.336402 -0.739820 -0.582666
vn -0.415544 -0.556142 -0.719743
vn -0.582666 -0.739820 -0.336402
vn -0.719743 -0.556142 -0.415544
vn -0.672805 -0.739820 -0.000000
vn -0.831087 -0.556142 -0.000000
vn -0.582666 -0.739820 0.336402
vn -0.719743 -0.556142 0.415544
vn -0.336402 -0.739820 0.582666
vn -0.415544 -0.556142 0.719743
vn 0.000000 -0.739820 0.672805
vn -0.000000 -0.556142 0.831087
vn 0.336403 -0.739820 0.582666
vn 0.415544 -0.556142 0.719743
vn 0.582666 -0.739820 0.336403
vn 0.719743 -0.556141 0.415544
vn 0.672805 -0.739820 0.000000
vn 0.831088 -0.556142 0.000000
vn 0.477226 -0.298365 -0.826580
vn 0.826579 -0.298365 -0.477227
vn 0.000000 -0.298365 -0.954452
vn -0.477226 -0.298365 -0.826580
vn -0.826579 -0.298366 -0.477226
vn -0.954452 -0.298366 -0.000000
vn -0.826579 -0.298366 0.477226
vn -0.477226 -0.298365 0.826580
vn 0.000000 -0.298365 0.954452
vn 0.477226 -0.298365 0.826580
vn 0.826579 -0.298365 0.477227
vn 0.954452 -0.298366 0.000000
vn 0.495829 -0.128898 -0.858801
vn 0.858800 -0.128898 -0.495830
vn 0.000000 -0.128898 -0.991658
vn -0.495829 -0.128898 -0.858801
vn -0.858801 -0.128898 -0.495829
vn -0.991658 -0.128898 0.000000
vn -0.858801 -0.128898 0.495829
vn -0.495829 -0.128898 0.858801
vn 0.000000 -0.128898 0.991658
vn 0.495829 -0.128898 0.858801
vn 0.858800 -0.128898 0.495830
vn 0.991658 -0.128898 -0.000000
vn 0.499023 -0.062468 -0.864334
vn 0.864333 -0.062467 -0.499025
vn 0.000000 -0.062468 -0.998047
vn -0.499023 -0.062468 -0.864334
vn -0.864334 -0.062467 -0.499024
vn -0.998047 -0.062467 0.000000
vn -0.864334 -0.062467 0.499024
vn -0.499023 -0.062468 0.864334
vn 0.000000 -0.062468 0.998047
vn 0.499023 -0.062468 0.864334
vn 0.864333 -0.062467 0.499025
vn 0.998047 -0.062467 -0.000000
vn 0.000000 1.000000 -0.000000
vn 0.000000 1.000000 -0.000000
vn 0.000000 1.000000 -0.000000
vn 0.000000 1.000000 -0.000000
vn 0.000000 1.000000 -0.000000
vn 0.000000 1.000000 -0.000000
vn 0.000000 1.000000 0.000000
vn 0.000000 1.000000 0.000000
vn 0.000000 1.000000 0.000000
vn 0.000000 1.000000 0.000000
vn 0.000000 1.000000 0.000000
vn 0.000000 1.000000 0.000000
vn 0.000000 1.000000 0.000000
vn 0.000000 1.000000 0.000000
vn 0.000000 1.000000 0.000000
vn 0.000000 1.000000 0.000000
vn 0.000000 1.000000 0.000000
vn 0.000000 1.000000 0.000000
vn 0.000000 1.000000 0.000000
vn 0.000000 1.000000 0.000000
vn 0.000000 1.000000 0.000000
vn 0.000000 1.000000 0.000000
vn 0.000000 1.000000 0.000000
vn 0.000000 1.000000 0.000000
vn 0.703527 0.583151 -0.406183
vn 0.401061 0.597159 -0.694659
vn 0.342983 0.754604 -0.559407
vn 0.604653 0.715909 -0.349098
vn -0.009044 0.621200 -0.783600
vn -0.035123 0.727228 -0.685497
vn -0.383968 0.621200 -0.683140
vn -0.328335 0.727108 -0.602917
vn -0.694659 0.597159 -0.401061
vn -0.555834 0.766854 -0.320911
vn -0.783600 0.621199 0.009044
vn -0.684082 0.729128 0.020098
vn -0.683140 0.621199 0.383968
vn -0.609190 0.729206 0.311682
vn -0.401061 0.597160 0.694658
vn -0.314477 0.756942 0.572837
vn -0.000000 0.583151 0.812364
vn 0.000000 0.715909 0.698194
vn 0.401061 0.597159 0.694659
vn 0.323985 0.771547 0.547493
vn 0.703527 0.583151 0.406183
vn 0.601016 0.719980 0.346998
vn 0.802123 0.597159 0.000000
vn 0.636135 0.771547 0.006833
s 1
g rice
usemtl initialShadingGroup
f 1/1/1 2/2/2 14/3/3 13/4/4
f 2/2/2 3/5/5 15/138/6 14/3/3
f 3/139/5 4/7/7 16/8/8 15/6/6
f 4/7/7 5/9/9 17/10/10 16/8/8
f 5/9/9 6/11/11 18/12/12 17/10/10
f 6/11/11 7/13/13 19/14/14 18/12/12
f 7/13/13 8/15/15 20/16/16 19/14/14
f 8/15/15 9/17/17 21/18/18 20/16/16
f 9/17/17 10/19/19 22/20/20 21/18/18
f 10/19/19 11/21/21 23/22/22 22/20/20
f 11/21/21 12/23/23 24/24/24 23/22/22
f 12/23/23 1/1/1 13/4/4 24/24/24
s 2
f 97/25/25 98/149/26 99/160/27
f 98/26/26 100/148/28 99/159/27
f 100/28/28 101/147/29 99/158/27
f 101/29/29 102/146/30 99/157/27
f 102/30/30 103/145/31 99/156/27
f 103/31/31 104/144/32 99/155/27
f 104/32/32 105/143/33 99/154/27
f 105/33/33 106/34/34 99/153/27
f 106/34/34 107/142/35 99/152/27
f 107/35/35 108/36/36 99/151/27
f 108/36/36 109/150/37 99/27/27
f 109/37/37 97/25/25 99/161/27
s 3
f 13/4/38 14/3/39 26/38/40 25/39/41
f 14/3/39 15/138/42 27/137/43 26/38/40
f 15/6/42 16/8/44 28/41/45 27/40/43
f 16/8/44 17/10/46 29/42/47 28/41/45
f 17/10/46 18/12/48 30/43/49 29/42/47
f 18/12/48 19/14/50 31/44/51 30/43/49
f 19/14/50 20/16/52 32/45/53 31/44/51
f 20/16/52 21/18/54 33/46/55 32/45/53
f 21/18/54 22/20/56 34/47/57 33/46/55
f 22/20/56 23/22/58 35/48/59 34/47/57
f 23/22/58 24/24/60 36/49/61 35/48/59
f 24/24/60 13/4/38 25/39/41 36/49/61
f 25/39/41 26/38/40 38/50/62 37/51/63
f 26/38/40 27/137/43 39/136/64 38/50/62
f 27/40/43 28/41/45 40/53/65 39/52/64
f 28/41/45 29/42/47 41/54/66 40/53/65
f 29/42/47 30/43/49 42/55/67 41/54/66
f 30/43/49 31/44/51 43/56/68 42/55/67
f 31/44/51 32/45/53 44/57/69 43/56/68
f 32/45/53 33/46/55 45/58/70 44/57/69
f 33/46/55 34/47/57 46/59/71 45/58/70
f 34/47/57 35/48/59 47/60/72 46/59/71
f 35/48/59 36/49/61 48/61/73 47/60/72
f 36/49/61 25/39/41 37/51/63 48/61/73
f 37/51/63 38/50/62 50/62/74 49/63/75
f 38/50/62 39/136/64 51/134/76 50/62/74
f 39/52/64 40/53/65 52/65/77 51/64/76
f 40/53/65 41/54/66 53/66/78 52/65/77
f 41/54/66 42/55/67 54/67/79 53/66/78
f 42/55/67 43/56/68 55/68/80 54/67/79
f 43/56/68 44/57/69 56/69/81 55/68/80
f 44/57/69 45/58/70 57/70/82 56/69/81
f 45/58/70 46/59/71 58/71/83 57/70/82
f 46/59/71 47/60/72 59/72/84 58/71/83
f 47/60/72 48/61/73 60/73/85 59/72/84
f 48/61/73 37/51/63 49/63/75 60/73/85
f 49/63/75 50/62/74 62/133/86 61/123/87
f 50/62/74 51/134/76 63/135/88 62/133/86
f 51/64/76 52/65/77 64/131/89 63/132/88
f 52/65/77 53/66/78 65/130/90 64/131/89
f 53/66/78 54/67/79 66/129/91 65/130/90
f 54/67/79 55/68/80 67/128/92 66/129/91
f 55/68/80 56/69/81 68/127/93 67/128/92
f 56/69/81 57/70/82 69/126/94 68/127/93
f 57/70/82 58/71/83 70/125/95 69/126/94
f 58/71/83 59/72/84 71/124/96 70/125/95
f 59/72/84 60/73/85 72/122/97 71/124/96
f 60/73/85 49/63/75 61/123/87 72/122/97
s 4
f 61/74/98 62/75/99 74/76/100 73/77/101
f 62/75/99 63/78/102 75/79/103 74/76/100
f 63/78/102 64/80/104 76/81/105 75/79/103
f 64/80/104 65/82/106 77/83/107 76/81/105
f 65/82/106 66/84/108 78/85/109 77/83/107
f 66/84/108 67/110/110 79/111/111 78/85/109
f 67/110/110 68/112/112 80/113/113 79/111/111
f 68/112/112 69/114/114 81/115/115 80/113/113
f 69/114/114 70/116/116 82/117/117 81/115/115
f 70/116/116 71/118/118 83/119/119 82/117/117
f 71/118/118 72/120/120 84/121/121 83/119/119
f 72/120/120 61/74/98 73/77/101 84/121/121
s 2
f 73/87/122 74/86/123 86/98/124 85/99/125
f 74/86/123 75/88/126 87/100/127 86/98/124
f 75/88/126 76/89/128 88/101/129 87/100/127
f 76/89/128 77/90/130 89/102/131 88/101/129
f 77/90/130 78/91/132 90/103/133 89/102/131
f 78/91/132 79/92/134 91/104/135 90/103/133
f 79/92/134 80/93/136 92/105/137 91/104/135
f 80/93/136 81/94/138 93/106/139 92/105/137
f 81/94/138 82/95/140 94/107/141 93/106/139
f 82/95/140 83/96/142 95/108/143 94/107/141
f 83/96/142 84/140/144 96/141/145 95/108/143
f 84/97/144 73/87/122 85/99/125 96/109/145
f 85/99/125 86/98/124 98/149/26 97/25/25
f 86/98/124 87/100/127 100/148/28 98/26/26
f 87/100/127 88/101/129 101/147/29 100/28/28
f 88/101/129 89/102/131 102/146/30 101/29/29
f 89/102/131 90/103/133 103/145/31 102/30/30
f 90/103/133 91/104/135 104/144/32 103/31/31
f 91/104/135 92/105/137 105/143/33 104/32/32
f 92/105/137 93/106/139 106/34/34 105/33/33
f 93/106/139 94/107/141 107/142/35 106/34/34
f 94/107/141 95/108/143 108/36/36 107/35/35
f 95/108/143 96/141/145 109/150/37 108/36/36
f 96/109/145 85/99/125 97/25/25 109/37/37
