# This file uses centimeters as units for non-parametric coordinates.

mtllib sand.mtl
g default
v 0.769819 0.000000 -0.562032
v 0.300314 0.000000 -0.919229
v -0.255827 0.000000 -0.805346
v -0.777881 0.000000 -0.573294
v -0.899558 0.000000 -0.004938
v -0.810815 0.000000 0.584545
v -0.303309 0.000000 0.937165
v 0.277177 0.000000 0.839936
v 0.910498 0.000000 0.658156
v 0.892699 0.000000 -0.005273
v 0.588839 0.333333 -0.433615
v 0.251723 0.333333 -0.773026
v -0.199857 0.333333 -0.647292
v -0.626294 0.333333 -0.466057
v -0.658357 0.333333 -0.007139
v -0.627861 0.333333 0.448588
v -0.226702 0.333333 0.699626
v 0.220462 0.333333 0.659435
v 0.694915 0.333333 0.495683
v 0.702843 0.333333 -0.008849
v 0.349809 0.668610 -0.257632
v 0.164499 0.667085 -0.497444
v -0.114714 0.669824 -0.414740
v -0.361493 0.666719 -0.273245
v -0.349701 0.666168 0.000512
v -0.322067 0.664325 0.230147
v -0.137978 0.664377 0.414444
v 0.141468 0.665573 0.406607
v 0.350506 0.666459 0.228785
v 0.392522 0.667154 -0.008872
v 0.185151 1.048717 -0.126857
v 0.089942 1.049212 -0.229287
v -0.049073 1.049254 -0.220514
v -0.191411 1.027653 -0.145795
v -0.205202 1.014410 0.010143
v -0.150668 1.003076 0.115718
v -0.074259 0.988627 0.217176
v 0.084651 0.993146 0.230362
v 0.195125 1.013465 0.117206
v 0.240498 1.028192 -0.005808
v 0.107024 1.213446 -0.061445
v 0.060769 1.220126 -0.108792
v -0.008823 1.206986 -0.109718
v -0.082542 1.186606 -0.071832
v -0.095780 1.157535 0.007538
v -0.071298 1.131591 0.066969
v -0.022608 1.120708 0.101400
v 0.050247 1.124336 0.103271
v 0.111116 1.145274 0.058249
v 0.135981 1.186142 -0.005107
v 0.066493 1.298590 -0.035149
v 0.044188 1.297863 -0.052471
v 0.013771 1.288830 -0.050664
v -0.015798 1.274993 -0.027726
v -0.025831 1.260606 0.009207
v -0.016383 1.250085 0.039205
v 0.006574 1.247382 0.056555
v 0.038263 1.250486 0.053562
v 0.065365 1.266063 0.030477
v 0.076801 1.286044 -0.004260
v 0.029295 1.324894 0.005697
vt 0.905441 0.795321
vt 0.656397 0.980062
vt 0.630622 0.904447
vt 0.809442 0.728903
vt 0.361398 0.921162
vt 0.391087 0.839417
vt 0.084480 0.801145
vt 0.164888 0.745682
vt 0.019938 0.507192
vt 0.147880 0.508330
vt 0.067010 0.202312
vt 0.164056 0.272629
vt 0.336212 0.019938
vt 0.376847 0.142793
vt 0.644124 0.070225
vt 0.614040 0.163579
vt 0.980062 0.164241
vt 0.865709 0.248272
vt 0.970621 0.507366
vt 0.869914 0.509215
vt 0.584355 0.761915
vt 0.682651 0.637885
vt 0.436250 0.719141
vt 0.305349 0.645960
vt 0.311604 0.504373
vt 0.326261 0.385607
vt 0.423910 0.290288
vt 0.572139 0.294342
vt 0.683021 0.386311
vt 0.705308 0.509227
vt 0.544807 0.623225
vt 0.595310 0.570248
vt 0.471068 0.618688
vt 0.395567 0.580043
vt 0.388252 0.499392
vt 0.417178 0.444789
vt 0.457709 0.392315
vt 0.542001 0.385495
vt 0.600601 0.444019
vt 0.624668 0.507642
vt 0.529333 0.560905
vt 0.553868 0.536417
vt 0.492419 0.561384
vt 0.453315 0.541790
vt 0.446293 0.500740
vt 0.459279 0.470002
vt 0.485106 0.452194
vt 0.523751 0.451226
vt 0.556039 0.474512
vt 0.569228 0.507279
vt 0.520538 0.531776
vt 0.532369 0.522817
vt 0.504403 0.530841
vt 0.488719 0.518978
vt 0.483397 0.499877
vt 0.488408 0.484361
vt 0.500586 0.475388
vt 0.517395 0.476936
vt 0.531771 0.488875
vt 0.537837 0.506841
vt 0.512638 0.501692
vn 0.729390 0.506717 -0.459596
vn 0.225226 0.484786 -0.845136
vn 0.213947 0.556310 -0.802961
vn 0.708638 0.568322 -0.418141
vn -0.287212 0.425284 -0.858279
vn -0.285890 0.509483 -0.811600
vn -0.678879 0.531494 -0.506594
vn -0.649951 0.592725 -0.475648
vn -0.843395 0.537153 -0.012286
vn -0.802505 0.596646 0.000313
vn -0.676201 0.593919 0.435904
vn -0.657321 0.640266 0.397476
vn -0.203682 0.571402 0.794993
vn -0.196194 0.616063 0.762873
vn 0.189549 0.525192 0.829605
vn 0.192896 0.590813 0.783410
vn 0.642631 0.604517 0.470728
vn 0.614859 0.655734 0.438134
vn 0.852219 0.514785 -0.093371
vn 0.803505 0.589896 -0.080015
vn 0.227437 0.644851 -0.729684
vn 0.708247 0.600091 -0.371856
vn -0.294336 0.570080 -0.767056
vn -0.646028 0.648706 -0.402279
vn -0.798422 0.600147 0.048442
vn -0.650828 0.669286 0.358440
vn -0.240149 0.649748 0.721218
vn 0.224429 0.633430 0.740539
vn 0.611520 0.687970 0.390820
vn 0.784215 0.619281 -0.038707
vn 0.292824 0.567405 -0.769614
vn 0.772407 0.482208 -0.413355
vn -0.308171 0.516434 -0.798953
vn -0.734574 0.517267 -0.439130
vn -0.883303 0.452330 0.123180
vn -0.741332 0.504016 0.443165
vn -0.334105 0.551744 0.764168
vn 0.289120 0.535066 0.793797
vn 0.726975 0.488565 0.482506
vn 0.893116 0.449785 0.006114
vn 0.308686 0.590830 -0.745408
vn 0.736377 0.525034 -0.426718
vn -0.281299 0.606267 -0.743849
vn -0.675924 0.639219 -0.366778
vn -0.791708 0.579127 0.194450
vn -0.614967 0.563457 0.551662
vn -0.261274 0.621818 0.738294
vn 0.203211 0.625655 0.753168
vn 0.596535 0.558576 0.576315
vn 0.834616 0.545058 0.079548
vn 0.228563 0.651485 -0.723413
vn 0.721595 0.583665 -0.372338
vn -0.366066 0.653052 -0.662962
vn -0.710421 0.649273 -0.271565
vn -0.796485 0.560109 0.227794
vn -0.629078 0.469821 0.619298
vn -0.224803 0.409954 0.883969
vn 0.267861 0.392064 0.880078
vn 0.617003 0.425201 0.662201
vn 0.830948 0.518753 0.201051
vn 0.246861 0.901415 -0.355683
vn -0.277573 0.842106 -0.462396
vn -0.590822 0.743583 -0.313072
vn -0.756945 0.651695 0.048240
vn -0.675862 0.602694 0.424230
vn -0.447307 0.578603 0.682008
vn 0.026088 0.543044 0.839299
vn 0.346780 0.536642 0.769259
vn 0.598224 0.593549 0.538357
vn 0.642028 0.760805 0.094742
s 1
g sand
usemtl initialShadingGroup
f 1/1/1 2/2/2 12/3/3 11/4/4
f 2/2/2 3/5/5 13/6/6 12/3/3
f 3/5/5 4/7/7 14/8/8 13/6/6
f 4/7/7 5/9/9 15/10/10 14/8/8
f 5/9/9 6/11/11 16/12/12 15/10/10
f 6/11/11 7/13/13 17/14/14 16/12/12
f 7/13/13 8/15/15 18/16/16 17/14/14
f 8/15/15 9/17/17 19/18/18 18/16/16
f 9/17/17 10/19/19 20/20/20 19/18/18
f 10/19/19 1/1/1 11/4/4 20/20/20
f 11/4/4 12/3/3 22/21/21 21/22/22
f 12/3/3 13/6/6 23/23/23 22/21/21
f 13/6/6 14/8/8 24/24/24 23/23/23
f 14/8/8 15/10/10 25/25/25 24/24/24
f 15/10/10 16/12/12 26/26/26 25/25/25
f 16/12/12 17/14/14 27/27/27 26/26/26
f 17/14/14 18/16/16 28/28/28 27/27/27
f 18/16/16 19/18/18 29/29/29 28/28/28
f 19/18/18 20/20/20 30/30/30 29/29/29
f 20/20/20 11/4/4 21/22/22 30/30/30
f 21/22/22 22/21/21 32/31/31 31/32/32
f 22/21/21 23/23/23 33/33/33 32/31/31
f 23/23/23 24/24/24 34/34/34 33/33/33
f 24/24/24 25/25/25 35/35/35 34/34/34
f 25/25/25 26/26/26 36/36/36 35/35/35
f 26/26/26 27/27/27 37/37/37 36/36/36
f 27/27/27 28/28/28 38/38/38 37/37/37
f 28/28/28 29/29/29 39/39/39 38/38/38
f 29/29/29 30/30/30 40/40/40 39/39/39
f 30/30/30 21/22/22 31/32/32 40/40/40
f 31/32/32 32/31/31 42/41/41 41/42/42
f 32/31/31 33/33/33 43/43/43 42/41/41
f 33/33/33 34/34/34 44/44/44 43/43/43
f 34/34/34 35/35/35 45/45/45 44/44/44
f 35/35/35 36/36/36 46/46/46 45/45/45
f 36/36/36 37/37/37 47/47/47 46/46/46
f 37/37/37 38/38/38 48/48/48 47/47/47
f 38/38/38 39/39/39 49/49/49 48/48/48
f 39/39/39 40/40/40 50/50/50 49/49/49
f 40/40/40 31/32/32 41/42/42 50/50/50
f 41/42/42 42/41/41 52/51/51 51/52/52
f 42/41/41 43/43/43 53/53/53 52/51/51
f 43/43/43 44/44/44 54/54/54 53/53/53
f 44/44/44 45/45/45 55/55/55 54/54/54
f 45/45/45 46/46/46 56/56/56 55/55/55
f 46/46/46 47/47/47 57/57/57 56/56/56
f 47/47/47 48/48/48 58/58/58 57/57/57
f 48/48/48 49/49/49 59/59/59 58/58/58
f 49/49/49 50/50/50 60/60/60 59/59/59
f 50/50/50 41/42/42 51/52/52 60/60/60
f 51/52/52 52/51/51 61/61/61
f 52/51/51 53/53/53 61/61/62
f 53/53/53 54/54/54 61/61/63
f 54/54/54 55/55/55 61/61/64
f 55/55/55 56/56/56 61/61/65
f 56/56/56 57/57/57 61/61/66
f 57/57/57 58/58/58 61/61/67
f 58/58/58 59/59/59 61/61/68
f 59/59/59 60/60/60 61/61/69
f 60/60/60 51/52/52 61/61/70
